<?xml version="1.0" encoding="UTF-8"?><svg xmlns="http://www.w3.org/2000/svg" xmlns:xlink="http://www.w3.org/1999/xlink" contentScriptType="text/ecmascript" width="240" zoomAndPan="magnify" contentStyleType="text/css" viewBox="0 0 240 239.999995" height="239.999995" preserveAspectRatio="xMidYMid meet" version="1.0"><defs><clipPath id="clip-0"><path d="M 30 13.109375 L 54 13.109375 L 54 236 L 30 236 Z M 30 13.109375 " clip-rule="nonzero"/></clipPath><clipPath id="clip-1"><path d="M 67 13.109375 L 90 13.109375 L 90 173 L 67 173 Z M 67 13.109375 " clip-rule="nonzero"/></clipPath><clipPath id="clip-2"><path d="M 69 13.109375 L 92 13.109375 L 92 236 L 69 236 Z M 69 13.109375 " clip-rule="nonzero"/></clipPath><clipPath id="clip-3"><path d="M 105 13.109375 L 128 13.109375 L 128 173 L 105 173 Z M 105 13.109375 " clip-rule="nonzero"/></clipPath><clipPath id="clip-4"><path d="M 108 13.109375 L 131 13.109375 L 131 236 L 108 236 Z M 108 13.109375 " clip-rule="nonzero"/></clipPath><clipPath id="clip-5"><path d="M 144 13.109375 L 151 13.109375 L 151 194 L 144 194 Z M 144 13.109375 " clip-rule="nonzero"/></clipPath><clipPath id="clip-6"><path d="M 233 69 L 238.5 69 L 238.5 215 L 233 215 Z M 233 69 " clip-rule="nonzero"/></clipPath><clipPath id="clip-7"><path d="M 233 71 L 238.5 71 L 238.5 237 L 233 237 Z M 233 71 " clip-rule="nonzero"/></clipPath></defs><path fill="rgb(41.958618%, 12.159729%, 28.62854%)" d="M 2.472656 76.613281 L 2.472656 232.261719 L 14.535156 188.859375 L 3.265625 74.035156 Z M 1.300781 236.332031 C 1.152344 236.332031 1.011719 236.308594 0.867188 236.25 C 0.425781 236.070312 0.136719 235.636719 0.136719 235.160156 L 0.136719 76.136719 C 0.136719 75.832031 0.25 75.542969 0.464844 75.324219 L 2.246094 70.3125 C 2.578125 69.972656 3.082031 69.863281 3.527344 70.042969 C 3.964844 70.21875 4.257812 70.652344 4.257812 71.125 L 16.875 189.339844 C 16.875 189.640625 16.757812 189.933594 16.546875 190.152344 L 2.148438 235.980469 C 1.917969 236.207031 1.613281 236.332031 1.300781 236.332031 " fill-opacity="1" fill-rule="nonzero"/><path fill="rgb(19.999695%, 5.099487%, 9.408569%)" d="M 16.875 188.238281 L 0.109375 236.363281 L 0.109375 78.5 L 4.257812 71.1875 L 16.875 188.238281 " fill-opacity="1" fill-rule="nonzero"/><path fill="rgb(90.19928%, 82.348633%, 76.078796%)" d="M 4.371094 71.984375 L 1.429688 78.5 L 1.429688 236.363281 L 22.660156 214.402344 L 22.660156 236.363281 L 27.964844 210.644531 L 29.300781 71.984375 L 4.371094 71.984375 " fill-opacity="1" fill-rule="nonzero"/><path fill="rgb(41.958618%, 12.159729%, 28.62854%)" d="M 29.675781 189.097656 L 29.675781 76.5 L 30.472656 73.917969 L 30.285156 211.15625 L 29.949219 211.503906 L 32.625 207.332031 L 31.460938 71.011719 C 31.460938 70.539062 31.171875 70.109375 30.726562 69.925781 C 30.285156 69.75 29.777344 69.859375 29.449219 70.203125 L 27.664062 75.207031 C 27.457031 75.425781 27.335938 75.722656 27.335938 76.027344 L 27.335938 189.097656 L 29.675781 189.097656 " fill-opacity="1" fill-rule="nonzero"/><path fill="rgb(19.999695%, 5.099487%, 9.408569%)" d="M 32.625 210.53125 L 27.316406 236.25 L 27.316406 78.386719 L 31.460938 71.078125 L 32.625 210.53125 " fill-opacity="1" fill-rule="nonzero"/><path fill="rgb(27.839661%, 7.839966%, 16.468811%)" d="M 14.039062 80.148438 C 7.425781 80.152344 1.917969 78.441406 0.492188 76.152344 L 0.109375 76.152344 L 0.109375 235.179688 C 0.109375 238.023438 6.347656 240.324219 14.039062 240.324219 C 21.730469 240.324219 27.964844 238.023438 27.964844 235.179688 L 27.964844 76.152344 L 27.582031 76.152344 C 26.164062 78.441406 20.65625 80.152344 14.039062 80.148438 " fill-opacity="1" fill-rule="nonzero"/><path fill="rgb(97.648621%, 67.059326%, 4.708862%)" d="M 21.34375 122.816406 C 20.359375 126.859375 15.835938 129.222656 11.230469 128.097656 C 6.628906 126.96875 3.695312 122.785156 4.679688 118.746094 C 5.65625 114.703125 10.183594 112.34375 14.789062 113.46875 C 19.386719 114.597656 22.324219 118.78125 21.34375 122.816406 " fill-opacity="1" fill-rule="nonzero"/><path fill="rgb(97.648621%, 67.059326%, 4.708862%)" d="M 0.109375 90.363281 L 0.109375 102.25 C 3.488281 103.703125 8.460938 104.621094 14.039062 104.621094 C 19.617188 104.621094 24.589844 103.703125 27.964844 102.25 L 27.964844 90.363281 C 24.589844 91.8125 19.617188 92.730469 14.039062 92.730469 C 8.460938 92.730469 3.488281 91.8125 0.109375 90.363281 " fill-opacity="1" fill-rule="nonzero"/><path fill="rgb(97.648621%, 67.059326%, 4.708862%)" d="M 27.964844 230.476562 L 27.964844 227.179688 C 24.589844 228.628906 19.617188 229.546875 14.039062 229.546875 C 8.460938 229.546875 3.488281 228.625 0.109375 227.175781 L 0.109375 230.476562 C 3.488281 231.925781 8.460938 232.84375 14.039062 232.84375 C 19.617188 232.84375 24.589844 231.925781 27.964844 230.476562 " fill-opacity="1" fill-rule="nonzero"/><path fill="rgb(97.648621%, 67.059326%, 4.708862%)" d="M 27.964844 225.453125 L 27.964844 222.15625 C 24.589844 223.601562 19.617188 224.519531 14.039062 224.519531 C 8.460938 224.519531 3.488281 223.601562 0.109375 222.148438 L 0.109375 225.449219 C 3.488281 226.898438 8.460938 227.816406 14.039062 227.816406 C 19.617188 227.816406 24.589844 226.898438 27.964844 225.453125 " fill-opacity="1" fill-rule="nonzero"/><path fill="rgb(97.648621%, 67.059326%, 4.708862%)" d="M 14.039062 222.789062 C 19.617188 222.789062 24.589844 221.871094 27.964844 220.425781 L 27.964844 217.128906 C 24.589844 218.574219 19.617188 219.492188 14.039062 219.492188 C 8.460938 219.492188 3.488281 218.574219 0.109375 217.125 L 0.109375 220.421875 C 3.488281 221.871094 8.460938 222.789062 14.039062 222.789062 " fill-opacity="1" fill-rule="nonzero"/><g clip-path="url(#clip-0)"><path fill="rgb(87.449646%, 52.159119%, 5.488586%)" d="M 34.011719 22.230469 L 34.011719 229.582031 L 50.082031 171.769531 L 35.070312 18.789062 Z M 32.457031 235.007812 C 32.257812 235.003906 32.0625 234.96875 31.871094 234.894531 C 31.285156 234.65625 30.898438 234.082031 30.898438 233.445312 L 30.898438 21.601562 C 30.898438 21.191406 31.054688 20.804688 31.332031 20.511719 L 33.707031 13.839844 C 34.148438 13.378906 34.824219 13.238281 35.414062 13.476562 C 36 13.710938 36.386719 14.289062 36.386719 14.925781 L 53.199219 172.398438 C 53.199219 172.804688 53.042969 173.195312 52.765625 173.484375 L 33.578125 234.53125 C 33.277344 234.839844 32.871094 235.007812 32.457031 235.007812 " fill-opacity="1" fill-rule="nonzero"/></g><path fill="rgb(65.879822%, 29.798889%, 5.488586%)" d="M 53.199219 170.9375 L 30.871094 235.046875 L 30.871094 24.746094 L 36.386719 15.007812 L 53.199219 170.9375 " fill-opacity="1" fill-rule="nonzero"/><path fill="rgb(90.19928%, 82.348633%, 76.078796%)" d="M 36.542969 16.070312 L 32.625 24.746094 L 32.625 235.046875 L 60.902344 205.792969 L 60.902344 235.046875 L 83.230469 170.9375 L 69.75 16.066406 L 36.542969 16.070312 " fill-opacity="1" fill-rule="nonzero"/><g clip-path="url(#clip-1)"><path fill="rgb(87.449646%, 52.159119%, 5.488586%)" d="M 70.253906 172.082031 L 70.253906 22.082031 L 71.3125 18.640625 L 86.324219 171.613281 L 85.875 172.082031 L 89.4375 166.527344 L 72.625 14.773438 C 72.625 14.136719 72.242188 13.566406 71.652344 13.324219 C 71.066406 13.085938 70.390625 13.230469 69.949219 13.6875 L 67.574219 20.359375 C 67.292969 20.652344 67.136719 21.042969 67.136719 21.453125 L 67.136719 172.078125 L 70.253906 172.082031 " fill-opacity="1" fill-rule="nonzero"/></g><path fill="rgb(65.879822%, 29.798889%, 5.488586%)" d="M 89.4375 170.789062 L 67.113281 234.894531 L 67.109375 24.59375 L 72.625 14.859375 L 89.4375 170.789062 " fill-opacity="1" fill-rule="nonzero"/><path fill="rgb(97.648621%, 67.059326%, 4.708862%)" d="M 49.421875 26.945312 C 40.613281 26.945312 33.273438 24.664062 31.375 21.617188 L 30.871094 21.617188 L 30.871094 233.46875 C 30.871094 237.257812 39.175781 240.324219 49.421875 240.324219 C 59.667969 240.324219 67.972656 237.257812 67.972656 233.46875 L 67.972656 21.617188 L 67.464844 21.617188 C 65.574219 24.664062 58.230469 26.941406 49.421875 26.945312 " fill-opacity="1" fill-rule="nonzero"/><path fill="rgb(93.328857%, 87.059021%, 88.238525%)" d="M 59.152344 83.785156 C 57.84375 89.167969 51.816406 92.3125 45.683594 90.8125 C 39.554688 89.316406 35.644531 83.742188 36.953125 78.359375 C 38.257812 72.980469 44.289062 69.832031 50.417969 71.328125 C 56.550781 72.832031 60.460938 78.40625 59.152344 83.785156 " fill-opacity="1" fill-rule="nonzero"/><path fill="rgb(93.328857%, 87.059021%, 88.238525%)" d="M 30.871094 40.550781 L 30.871094 56.378906 C 35.363281 58.316406 41.988281 59.542969 49.421875 59.542969 C 56.847656 59.542969 63.480469 58.316406 67.972656 56.382812 L 67.972656 40.550781 C 63.484375 42.480469 56.847656 43.703125 49.421875 43.703125 C 41.992188 43.703125 35.363281 42.480469 30.871094 40.550781 " fill-opacity="1" fill-rule="nonzero"/><path fill="rgb(93.328857%, 87.059021%, 88.238525%)" d="M 67.972656 227.203125 L 67.972656 222.8125 C 63.480469 224.746094 56.847656 225.96875 49.421875 225.96875 C 41.988281 225.96875 35.363281 224.742188 30.871094 222.8125 L 30.871094 227.203125 C 35.363281 229.132812 41.988281 230.359375 49.421875 230.363281 C 56.847656 230.363281 63.480469 229.136719 67.972656 227.203125 " fill-opacity="1" fill-rule="nonzero"/><path fill="rgb(93.328857%, 87.059021%, 88.238525%)" d="M 67.972656 220.507812 L 67.972656 216.117188 C 63.480469 218.046875 56.847656 219.273438 49.421875 219.273438 C 41.988281 219.273438 35.363281 218.042969 30.871094 216.113281 L 30.871094 220.507812 C 35.363281 222.4375 41.988281 223.667969 49.421875 223.667969 C 56.847656 223.667969 63.480469 222.441406 67.972656 220.507812 " fill-opacity="1" fill-rule="nonzero"/><path fill="rgb(93.328857%, 87.059021%, 88.238525%)" d="M 49.421875 216.96875 C 56.847656 216.96875 63.480469 215.742188 67.972656 213.8125 L 67.972656 209.421875 C 63.480469 211.351562 56.847656 212.574219 49.421875 212.574219 C 41.992188 212.574219 35.363281 211.351562 30.871094 209.417969 L 30.871094 213.808594 C 35.363281 215.738281 41.988281 216.96875 49.421875 216.96875 " fill-opacity="1" fill-rule="nonzero"/><g clip-path="url(#clip-2)"><path fill="rgb(41.958618%, 12.159729%, 28.62854%)" d="M 72.492188 22.230469 L 72.492188 229.582031 L 88.5625 171.765625 L 73.546875 18.789062 Z M 70.933594 235.007812 C 70.734375 235.003906 70.535156 234.96875 70.347656 234.894531 C 69.761719 234.65625 69.375 234.082031 69.375 233.445312 L 69.375 21.601562 C 69.375 21.191406 69.53125 20.804688 69.8125 20.511719 L 72.1875 13.839844 C 72.625 13.378906 73.300781 13.238281 73.890625 13.476562 C 74.480469 13.710938 74.863281 14.289062 74.863281 14.925781 L 91.675781 172.398438 C 91.675781 172.804688 91.519531 173.195312 91.238281 173.484375 L 72.054688 234.53125 C 71.753906 234.84375 71.34375 235.007812 70.933594 235.007812 " fill-opacity="1" fill-rule="nonzero"/></g><path fill="rgb(19.999695%, 5.099487%, 9.408569%)" d="M 91.675781 170.9375 L 69.347656 235.046875 L 69.347656 24.746094 L 74.863281 15.007812 L 91.675781 170.9375 " fill-opacity="1" fill-rule="nonzero"/><path fill="rgb(90.19928%, 82.348633%, 76.078796%)" d="M 75.023438 16.070312 L 71.101562 24.746094 L 71.101562 235.046875 L 99.378906 205.792969 L 99.378906 235.046875 L 121.707031 170.9375 L 108.226562 16.066406 L 75.023438 16.070312 " fill-opacity="1" fill-rule="nonzero"/><g clip-path="url(#clip-3)"><path fill="rgb(41.958618%, 12.159729%, 28.62854%)" d="M 108.730469 172.082031 L 108.730469 22.082031 L 109.792969 18.640625 L 124.796875 171.617188 L 124.351562 172.078125 L 127.914062 166.527344 L 111.105469 14.773438 C 111.105469 14.136719 110.714844 13.566406 110.128906 13.324219 C 109.542969 13.085938 108.863281 13.230469 108.421875 13.6875 L 106.054688 20.359375 C 105.773438 20.652344 105.613281 21.042969 105.613281 21.453125 L 105.613281 172.078125 L 108.730469 172.082031 " fill-opacity="1" fill-rule="nonzero"/></g><path fill="rgb(19.999695%, 5.099487%, 9.408569%)" d="M 127.914062 170.789062 L 105.589844 234.894531 L 105.589844 24.59375 L 111.105469 14.859375 L 127.914062 170.789062 " fill-opacity="1" fill-rule="nonzero"/><path fill="rgb(27.839661%, 7.839966%, 16.468811%)" d="M 87.898438 26.941406 C 79.085938 26.945312 71.75 24.664062 69.855469 21.617188 L 69.347656 21.617188 L 69.347656 233.46875 C 69.347656 237.257812 77.652344 240.324219 87.898438 240.324219 C 98.144531 240.324219 106.449219 237.257812 106.449219 233.46875 L 106.449219 21.617188 L 105.941406 21.617188 C 104.046875 24.664062 96.710938 26.945312 87.898438 26.941406 " fill-opacity="1" fill-rule="nonzero"/><path fill="rgb(97.648621%, 67.059326%, 4.708862%)" d="M 97.632812 83.785156 C 96.320312 89.167969 90.292969 92.3125 84.160156 90.8125 C 78.03125 89.316406 74.121094 83.742188 75.429688 78.359375 C 76.738281 72.980469 82.761719 69.832031 88.894531 71.332031 C 95.027344 72.832031 98.933594 78.40625 97.632812 83.785156 " fill-opacity="1" fill-rule="nonzero"/><path fill="rgb(97.648621%, 67.059326%, 4.708862%)" d="M 69.347656 40.550781 L 69.347656 56.378906 C 73.839844 58.316406 80.46875 59.542969 87.898438 59.542969 C 95.328125 59.542969 101.957031 58.316406 106.449219 56.382812 L 106.449219 40.550781 C 101.957031 42.480469 95.328125 43.703125 87.898438 43.703125 C 80.472656 43.703125 73.839844 42.480469 69.347656 40.550781 " fill-opacity="1" fill-rule="nonzero"/><path fill="rgb(97.648621%, 67.059326%, 4.708862%)" d="M 106.449219 227.203125 L 106.449219 222.8125 C 101.957031 224.746094 95.328125 225.96875 87.898438 225.96875 C 80.46875 225.96875 73.839844 224.742188 69.347656 222.8125 L 69.347656 227.203125 C 73.839844 229.132812 80.46875 230.363281 87.898438 230.363281 C 95.328125 230.363281 101.957031 229.136719 106.449219 227.203125 " fill-opacity="1" fill-rule="nonzero"/><path fill="rgb(97.648621%, 67.059326%, 4.708862%)" d="M 106.449219 220.507812 L 106.449219 216.117188 C 101.957031 218.046875 95.328125 219.273438 87.898438 219.273438 C 80.46875 219.273438 73.839844 218.042969 69.347656 216.113281 L 69.347656 220.507812 C 73.839844 222.4375 80.46875 223.667969 87.898438 223.667969 C 95.328125 223.667969 101.957031 222.441406 106.449219 220.507812 " fill-opacity="1" fill-rule="nonzero"/><path fill="rgb(97.648621%, 67.059326%, 4.708862%)" d="M 87.898438 216.96875 C 95.328125 216.96875 101.957031 215.742188 106.449219 213.8125 L 106.449219 209.421875 C 101.957031 211.351562 95.328125 212.574219 87.898438 212.574219 C 80.46875 212.574219 73.839844 211.351562 69.347656 209.417969 L 69.347656 213.808594 C 73.839844 215.742188 80.46875 216.96875 87.898438 216.96875 " fill-opacity="1" fill-rule="nonzero"/><g clip-path="url(#clip-4)"><path fill="rgb(27.449036%, 60.389709%, 59.21936%)" d="M 111.429688 22.226562 L 111.429688 229.582031 L 130.023438 170.9375 L 113.210938 17.957031 Z M 109.871094 235.003906 C 109.675781 235.003906 109.480469 234.96875 109.289062 234.894531 C 108.699219 234.65625 108.316406 234.082031 108.316406 233.441406 L 108.316406 21.601562 C 108.316406 21.1875 108.472656 20.804688 108.753906 20.511719 L 111.125 13.839844 C 111.570312 13.378906 112.242188 13.234375 112.828125 13.476562 C 113.417969 13.710938 113.800781 14.289062 113.800781 14.925781 L 130.617188 172.398438 C 130.617188 172.804688 130.460938 173.191406 130.179688 173.484375 L 110.996094 234.53125 C 110.695312 234.84375 110.285156 235.003906 109.871094 235.003906 " fill-opacity="1" fill-rule="nonzero"/></g><path fill="rgb(20.779419%, 45.098877%, 44.309998%)" d="M 130.617188 170.9375 L 108.289062 235.046875 L 108.289062 24.746094 L 113.800781 15.007812 L 130.617188 170.9375 " fill-opacity="1" fill-rule="nonzero"/><path fill="rgb(90.19928%, 82.348633%, 76.078796%)" d="M 113.964844 16.066406 L 110.042969 24.746094 L 110.042969 235.046875 L 138.320312 205.792969 L 138.320312 235.046875 L 144.523438 180.117188 L 147.167969 16.066406 L 113.964844 16.066406 " fill-opacity="1" fill-rule="nonzero"/><g clip-path="url(#clip-5)"><path fill="rgb(27.449036%, 60.389709%, 59.21936%)" d="M 147.667969 172.082031 L 147.667969 22.078125 L 148.703125 18.707031 L 147.613281 180.796875 L 147.167969 181.257812 L 150.730469 193.21875 L 150.042969 14.773438 C 150.042969 14.136719 149.660156 13.566406 149.074219 13.324219 C 148.488281 13.085938 147.808594 13.230469 147.363281 13.6875 L 144.992188 20.359375 C 144.710938 20.652344 144.554688 21.042969 144.554688 21.449219 L 144.554688 172.082031 L 147.667969 172.082031 " fill-opacity="1" fill-rule="nonzero"/></g><path fill="rgb(20.779419%, 45.098877%, 44.309998%)" d="M 150.730469 197.480469 L 144.527344 234.894531 L 144.527344 24.59375 L 150.042969 14.855469 L 150.730469 197.480469 " fill-opacity="1" fill-rule="nonzero"/><path fill="rgb(32.548523%, 71.369934%, 69.40918%)" d="M 126.839844 26.941406 C 118.027344 26.941406 110.691406 24.664062 108.796875 21.617188 L 108.289062 21.617188 L 108.289062 233.464844 C 108.289062 237.257812 116.59375 240.324219 126.839844 240.324219 C 137.085938 240.324219 145.390625 237.257812 145.390625 233.464844 L 145.390625 21.617188 L 144.882812 21.617188 C 142.992188 24.664062 135.648438 26.941406 126.839844 26.941406 " fill-opacity="1" fill-rule="nonzero"/><path fill="rgb(10.978699%, 23.139954%, 23.529053%)" d="M 137.941406 83.78125 C 136.632812 89.164062 130.605469 92.3125 124.476562 90.8125 C 118.339844 89.316406 114.433594 83.738281 115.738281 78.359375 C 117.050781 72.976562 123.074219 69.832031 129.207031 71.328125 C 135.335938 72.828125 139.25 78.402344 137.941406 83.78125 " fill-opacity="1" fill-rule="nonzero"/><path fill="rgb(10.978699%, 23.139954%, 23.529053%)" d="M 108.289062 40.550781 L 108.289062 56.378906 C 112.78125 58.316406 119.40625 59.542969 126.839844 59.542969 C 134.265625 59.542969 140.898438 58.316406 145.390625 56.386719 L 145.390625 40.550781 C 140.898438 42.476562 134.265625 43.703125 126.839844 43.703125 C 119.410156 43.703125 112.78125 42.476562 108.289062 40.550781 " fill-opacity="1" fill-rule="nonzero"/><path fill="rgb(10.978699%, 23.139954%, 23.529053%)" d="M 145.390625 227.203125 L 145.390625 222.8125 C 140.898438 224.742188 134.269531 225.96875 126.839844 225.96875 C 119.40625 225.96875 112.78125 224.742188 108.289062 222.8125 L 108.289062 227.203125 C 112.78125 229.132812 119.40625 230.359375 126.839844 230.359375 C 134.269531 230.359375 140.898438 229.136719 145.390625 227.203125 " fill-opacity="1" fill-rule="nonzero"/><path fill="rgb(10.978699%, 23.139954%, 23.529053%)" d="M 145.390625 220.507812 L 145.390625 216.117188 C 140.898438 218.046875 134.265625 219.273438 126.839844 219.273438 C 119.40625 219.273438 112.78125 218.039062 108.289062 216.113281 L 108.289062 220.507812 C 112.78125 222.4375 119.40625 223.667969 126.839844 223.667969 C 134.265625 223.667969 140.898438 222.441406 145.390625 220.507812 " fill-opacity="1" fill-rule="nonzero"/><path fill="rgb(10.978699%, 23.139954%, 23.529053%)" d="M 126.839844 216.964844 C 134.265625 216.964844 140.898438 215.742188 145.390625 213.8125 L 145.390625 209.421875 C 140.898438 211.351562 134.265625 212.574219 126.839844 212.574219 C 119.410156 212.574219 112.78125 211.351562 108.289062 209.417969 L 108.289062 213.808594 C 112.78125 215.742188 119.40625 216.964844 126.839844 216.964844 " fill-opacity="1" fill-rule="nonzero"/><path fill="rgb(87.449646%, 52.159119%, 5.488586%)" d="M 149.867188 43.722656 L 149.867188 230.640625 L 164.355469 178.523438 L 150.820312 40.621094 Z M 148.460938 235.53125 C 148.285156 235.53125 148.105469 235.496094 147.933594 235.429688 C 147.40625 235.214844 147.058594 234.695312 147.058594 234.125 L 147.058594 43.152344 C 147.058594 42.785156 147.199219 42.4375 147.449219 42.175781 L 149.59375 36.160156 C 149.988281 35.746094 150.601562 35.613281 151.128906 35.832031 C 151.65625 36.046875 152.007812 36.566406 152.007812 37.136719 L 167.160156 179.09375 C 167.160156 179.457031 167.019531 179.8125 166.769531 180.070312 L 149.472656 235.101562 C 149.203125 235.382812 148.835938 235.53125 148.460938 235.53125 " fill-opacity="1" fill-rule="nonzero"/><path fill="rgb(65.879822%, 29.798889%, 5.488586%)" d="M 167.160156 177.777344 L 147.03125 235.570312 L 147.03125 45.988281 L 152.007812 37.210938 L 167.160156 177.777344 " fill-opacity="1" fill-rule="nonzero"/><path fill="rgb(90.19928%, 82.348633%, 76.078796%)" d="M 152.148438 38.167969 L 148.617188 45.988281 L 148.617188 235.570312 L 174.101562 209.199219 L 174.101562 235.570312 L 180.308594 212.976562 L 182.082031 38.164062 L 152.148438 38.167969 " fill-opacity="1" fill-rule="nonzero"/><path fill="rgb(87.449646%, 52.159119%, 5.488586%)" d="M 182.535156 178.804688 L 182.535156 43.585938 L 183.492188 40.488281 L 183.097656 213.585938 L 182.695312 214.003906 L 185.90625 209 L 184.671875 37 C 184.671875 36.425781 184.324219 35.910156 183.796875 35.695312 C 183.265625 35.480469 182.65625 35.609375 182.257812 36.019531 L 180.121094 42.035156 C 179.863281 42.300781 179.722656 42.652344 179.722656 43.015625 L 179.722656 178.804688 L 182.535156 178.804688 " fill-opacity="1" fill-rule="nonzero"/><path fill="rgb(65.879822%, 29.798889%, 5.488586%)" d="M 185.90625 212.835938 L 179.699219 235.433594 L 179.699219 45.855469 L 184.671875 37.074219 L 185.90625 212.835938 " fill-opacity="1" fill-rule="nonzero"/><path fill="rgb(97.648621%, 67.059326%, 4.708862%)" d="M 163.753906 47.96875 C 155.8125 47.96875 149.195312 45.917969 147.488281 43.171875 L 147.03125 43.171875 L 147.03125 234.144531 C 147.03125 237.554688 154.519531 240.324219 163.753906 240.324219 C 172.992188 240.324219 180.476562 237.554688 180.480469 234.144531 L 180.476562 43.171875 L 180.019531 43.171875 C 178.3125 45.917969 171.695312 47.96875 163.753906 47.96875 " fill-opacity="1" fill-rule="nonzero"/><path fill="rgb(93.328857%, 87.059021%, 88.238525%)" d="M 172.527344 99.214844 C 171.347656 104.066406 165.914062 106.898438 160.382812 105.546875 C 154.859375 104.199219 151.335938 99.171875 152.511719 94.320312 C 153.691406 89.46875 159.125 86.632812 164.65625 87.984375 C 170.179688 89.335938 173.703125 94.363281 172.527344 99.214844 " fill-opacity="1" fill-rule="nonzero"/><path fill="rgb(93.328857%, 87.059021%, 88.238525%)" d="M 147.03125 60.234375 L 147.03125 74.507812 C 151.078125 76.25 157.058594 77.355469 163.753906 77.355469 C 170.453125 77.355469 176.429688 76.25 180.476562 74.507812 L 180.476562 60.234375 C 176.429688 61.976562 170.453125 63.078125 163.753906 63.078125 C 157.058594 63.078125 151.078125 61.976562 147.03125 60.234375 " fill-opacity="1" fill-rule="nonzero"/><path fill="rgb(93.328857%, 87.059021%, 88.238525%)" d="M 180.476562 228.496094 L 180.476562 224.539062 C 176.429688 226.28125 170.453125 227.382812 163.753906 227.382812 C 157.054688 227.378906 151.078125 226.277344 147.03125 224.535156 L 147.03125 228.496094 C 151.078125 230.238281 157.054688 231.34375 163.753906 231.34375 C 170.453125 231.34375 176.429688 230.238281 180.476562 228.496094 " fill-opacity="1" fill-rule="nonzero"/><path fill="rgb(93.328857%, 87.059021%, 88.238525%)" d="M 180.476562 222.460938 L 180.476562 218.5 C 176.429688 220.238281 170.453125 221.347656 163.753906 221.347656 C 157.054688 221.347656 151.078125 220.238281 147.03125 218.496094 L 147.03125 222.457031 C 151.078125 224.199219 157.054688 225.304688 163.753906 225.304688 C 170.453125 225.304688 176.429688 224.203125 180.476562 222.460938 " fill-opacity="1" fill-rule="nonzero"/><path fill="rgb(93.328857%, 87.059021%, 88.238525%)" d="M 163.753906 219.273438 C 170.453125 219.273438 176.429688 218.164062 180.476562 216.425781 L 180.476562 212.464844 C 176.429688 214.203125 170.453125 215.308594 163.753906 215.308594 C 157.058594 215.308594 151.078125 214.203125 147.03125 212.464844 L 147.03125 216.421875 C 151.078125 218.164062 157.054688 219.273438 163.753906 219.273438 " fill-opacity="1" fill-rule="nonzero"/><path fill="rgb(78.42865%, 17.248535%, 13.328552%)" d="M 183.925781 112.453125 L 183.925781 234.027344 L 193.347656 200.128906 L 184.542969 110.433594 Z M 183.007812 237.210938 C 182.894531 237.210938 182.777344 237.1875 182.667969 237.140625 C 182.324219 237 182.09375 236.667969 182.09375 236.296875 L 182.09375 112.082031 C 182.09375 111.84375 182.191406 111.613281 182.351562 111.445312 L 183.742188 107.535156 C 184.003906 107.265625 184.402344 107.175781 184.746094 107.320312 C 185.089844 107.460938 185.3125 107.792969 185.3125 108.167969 L 195.171875 200.5 C 195.171875 200.734375 195.078125 200.964844 194.917969 201.136719 L 183.667969 236.929688 C 183.492188 237.109375 183.253906 237.210938 183.007812 237.210938 " fill-opacity="1" fill-rule="nonzero"/><path fill="rgb(70.979309%, 10.978699%, 12.548828%)" d="M 195.171875 199.644531 L 182.082031 237.234375 L 182.082031 113.929688 L 185.3125 108.21875 L 195.171875 199.644531 " fill-opacity="1" fill-rule="nonzero"/><path fill="rgb(90.19928%, 82.348633%, 76.078796%)" d="M 185.40625 108.835938 L 183.109375 113.929688 L 183.109375 237.234375 L 199.691406 220.078125 L 199.691406 237.234375 L 212.777344 199.644531 L 204.875 108.835938 L 185.40625 108.835938 " fill-opacity="1" fill-rule="nonzero"/><path fill="rgb(78.42865%, 17.248535%, 13.328552%)" d="M 205.171875 200.3125 L 205.171875 112.367188 L 205.789062 110.34375 L 214.59375 200.042969 L 214.332031 200.3125 L 216.421875 197.058594 L 206.5625 108.078125 C 206.5625 107.707031 206.335938 107.371094 205.996094 107.230469 C 205.648438 107.089844 205.253906 107.175781 204.992188 107.445312 L 203.601562 111.355469 C 203.433594 111.527344 203.34375 111.753906 203.34375 111.996094 L 203.34375 200.3125 L 205.171875 200.3125 " fill-opacity="1" fill-rule="nonzero"/><path fill="rgb(70.979309%, 10.978699%, 12.548828%)" d="M 216.421875 199.554688 L 203.332031 237.148438 L 203.332031 113.839844 L 206.5625 108.128906 L 216.421875 199.554688 " fill-opacity="1" fill-rule="nonzero"/><path fill="rgb(94.119263%, 22.749329%, 16.468811%)" d="M 192.957031 115.214844 C 187.789062 115.214844 183.488281 113.878906 182.378906 112.09375 L 182.082031 112.09375 L 182.082031 236.304688 C 182.082031 238.527344 186.953125 240.324219 192.957031 240.324219 C 198.964844 240.324219 203.835938 238.527344 203.835938 236.304688 L 203.835938 112.09375 L 203.535156 112.09375 C 202.425781 113.878906 198.125 115.214844 192.957031 115.214844 " fill-opacity="1" fill-rule="nonzero"/><path fill="rgb(97.648621%, 67.059326%, 4.708862%)" d="M 198.664062 148.542969 C 197.894531 151.699219 194.363281 153.542969 190.765625 152.664062 C 187.171875 151.785156 184.878906 148.515625 185.644531 145.359375 C 186.414062 142.207031 189.945312 140.363281 193.539062 141.238281 C 197.136719 142.121094 199.429688 145.390625 198.664062 148.542969 " fill-opacity="1" fill-rule="nonzero"/><path fill="rgb(97.648621%, 67.059326%, 4.708862%)" d="M 182.082031 123.191406 L 182.082031 132.476562 C 184.714844 133.609375 188.601562 134.328125 192.957031 134.328125 C 197.3125 134.328125 201.199219 133.609375 203.835938 132.476562 L 203.835938 123.191406 C 201.199219 124.320312 197.3125 125.042969 192.957031 125.042969 C 188.601562 125.042969 184.714844 124.320312 182.082031 123.191406 " fill-opacity="1" fill-rule="nonzero"/><path fill="rgb(97.648621%, 67.059326%, 4.708862%)" d="M 203.835938 232.632812 L 203.835938 230.058594 C 201.199219 231.191406 197.3125 231.90625 192.957031 231.90625 C 188.601562 231.90625 184.714844 231.191406 182.082031 230.054688 L 182.082031 232.632812 C 184.714844 233.765625 188.601562 234.484375 192.957031 234.484375 C 197.3125 234.484375 201.199219 233.765625 203.835938 232.632812 " fill-opacity="1" fill-rule="nonzero"/><path fill="rgb(97.648621%, 67.059326%, 4.708862%)" d="M 203.835938 228.707031 L 203.835938 226.132812 C 201.199219 227.261719 197.3125 227.980469 192.957031 227.980469 C 188.601562 227.980469 184.714844 227.261719 182.082031 226.132812 L 182.082031 228.707031 C 184.714844 229.839844 188.601562 230.554688 192.957031 230.554688 C 197.3125 230.554688 201.199219 229.839844 203.835938 228.707031 " fill-opacity="1" fill-rule="nonzero"/><path fill="rgb(97.648621%, 67.059326%, 4.708862%)" d="M 192.957031 226.636719 C 197.3125 226.636719 201.199219 225.914062 203.835938 224.78125 L 203.835938 222.207031 C 201.199219 223.339844 197.3125 224.054688 192.957031 224.058594 C 188.601562 224.058594 184.714844 223.335938 182.082031 222.207031 L 182.082031 224.777344 C 184.714844 225.914062 188.601562 226.636719 192.957031 226.636719 " fill-opacity="1" fill-rule="nonzero"/><path fill="rgb(63.139343%, 7.449341%, 17.649841%)" d="M 208.234375 76.613281 L 208.234375 232.261719 L 220.296875 188.863281 L 209.027344 74.035156 Z M 207.066406 236.332031 C 206.917969 236.332031 206.769531 236.308594 206.625 236.25 C 206.1875 236.070312 205.894531 235.636719 205.898438 235.160156 L 205.894531 76.136719 C 205.894531 75.832031 206.011719 75.542969 206.222656 75.324219 L 208.007812 70.3125 C 208.335938 69.972656 208.84375 69.863281 209.285156 70.042969 C 209.726562 70.21875 210.015625 70.652344 210.015625 71.125 L 222.636719 189.339844 C 222.636719 189.640625 222.515625 189.933594 222.308594 190.152344 L 207.90625 235.980469 C 207.679688 236.207031 207.375 236.332031 207.066406 236.332031 " fill-opacity="1" fill-rule="nonzero"/><path fill="rgb(43.528748%, 4.708862%, 10.5896%)" d="M 222.636719 188.238281 L 205.875 236.363281 L 205.875 78.5 L 210.015625 71.1875 L 222.636719 188.238281 " fill-opacity="1" fill-rule="nonzero"/><path fill="rgb(90.19928%, 82.348633%, 76.078796%)" d="M 210.136719 71.984375 L 207.195312 78.5 L 207.195312 236.363281 L 228.417969 214.402344 L 228.417969 236.363281 L 233.730469 213.6875 L 235.0625 71.984375 L 210.136719 71.984375 " fill-opacity="1" fill-rule="nonzero"/><g clip-path="url(#clip-6)"><path fill="rgb(63.139343%, 7.449341%, 17.649841%)" d="M 235.4375 189.097656 L 235.4375 76.5 L 236.230469 73.917969 L 236.046875 214.203125 L 235.710938 214.550781 L 238.386719 210.382812 L 237.21875 71.011719 C 237.21875 70.539062 236.929688 70.109375 236.488281 69.925781 C 236.046875 69.75 235.542969 69.859375 235.210938 70.203125 L 233.425781 75.207031 C 233.214844 75.425781 233.101562 75.722656 233.101562 76.027344 L 233.101562 189.097656 L 235.4375 189.097656 " fill-opacity="1" fill-rule="nonzero"/></g><g clip-path="url(#clip-7)"><path fill="rgb(43.528748%, 4.708862%, 10.5896%)" d="M 238.386719 213.578125 L 233.078125 236.25 L 233.078125 78.386719 L 237.21875 71.078125 L 238.386719 213.578125 " fill-opacity="1" fill-rule="nonzero"/></g><path fill="rgb(85.099792%, 10.5896%, 25.099182%)" d="M 219.804688 80.148438 C 213.1875 80.152344 207.679688 78.441406 206.253906 76.152344 L 205.875 76.152344 L 205.875 235.179688 C 205.875 238.023438 212.109375 240.324219 219.804688 240.324219 C 227.492188 240.324219 233.730469 238.023438 233.722656 235.179688 L 233.722656 76.152344 L 233.347656 76.152344 C 231.921875 78.441406 226.417969 80.148438 219.804688 80.148438 " fill-opacity="1" fill-rule="nonzero"/><path fill="rgb(97.648621%, 67.059326%, 4.708862%)" d="M 227.101562 122.816406 C 226.125 126.859375 221.597656 129.222656 216.996094 128.097656 C 212.394531 126.96875 209.460938 122.785156 210.4375 118.746094 C 211.421875 114.703125 215.949219 112.34375 220.550781 113.46875 C 225.152344 114.597656 228.085938 118.78125 227.101562 122.816406 " fill-opacity="1" fill-rule="nonzero"/><path fill="rgb(97.648621%, 67.059326%, 4.708862%)" d="M 205.875 90.363281 L 205.875 102.25 C 209.246094 103.703125 214.222656 104.621094 219.804688 104.621094 C 225.378906 104.621094 230.351562 103.703125 233.722656 102.25 L 233.730469 90.363281 C 230.351562 91.8125 225.378906 92.730469 219.804688 92.730469 C 214.226562 92.730469 209.246094 91.8125 205.875 90.363281 " fill-opacity="1" fill-rule="nonzero"/><path fill="rgb(97.648621%, 67.059326%, 4.708862%)" d="M 233.722656 230.476562 L 233.722656 227.179688 C 230.351562 228.628906 225.378906 229.546875 219.804688 229.546875 C 214.222656 229.546875 209.246094 228.625 205.875 227.175781 L 205.875 230.476562 C 209.246094 231.925781 214.222656 232.84375 219.804688 232.84375 C 225.378906 232.84375 230.351562 231.925781 233.722656 230.476562 " fill-opacity="1" fill-rule="nonzero"/><path fill="rgb(97.648621%, 67.059326%, 4.708862%)" d="M 233.722656 225.453125 L 233.722656 222.15625 C 230.351562 223.601562 225.378906 224.519531 219.804688 224.519531 C 214.222656 224.519531 209.246094 223.601562 205.875 222.148438 L 205.875 225.449219 C 209.246094 226.898438 214.222656 227.816406 219.804688 227.816406 C 225.378906 227.816406 230.351562 226.898438 233.722656 225.453125 " fill-opacity="1" fill-rule="nonzero"/><path fill="rgb(97.648621%, 67.059326%, 4.708862%)" d="M 219.804688 222.789062 C 225.378906 222.789062 230.351562 221.871094 233.730469 220.425781 L 233.722656 217.128906 C 230.351562 218.574219 225.378906 219.492188 219.804688 219.492188 C 214.222656 219.492188 209.246094 218.574219 205.875 217.125 L 205.875 220.421875 C 209.246094 221.871094 214.222656 222.789062 219.804688 222.789062 " fill-opacity="1" fill-rule="nonzero"/></svg>