<?xml version="1.0" encoding="UTF-8"?><svg xmlns="http://www.w3.org/2000/svg" xmlns:xlink="http://www.w3.org/1999/xlink" contentScriptType="text/ecmascript" width="240" zoomAndPan="magnify" contentStyleType="text/css" viewBox="0 0 240 239.999995" height="239.999995" preserveAspectRatio="xMidYMid meet" version="1.0"><defs><clipPath id="clip-0"><path d="M 18.484375 174.222656 L 118.96875 174.222656 L 118.96875 239.878906 L 18.484375 239.878906 Z M 18.484375 174.222656 " clip-rule="nonzero"/></clipPath><clipPath id="clip-1"><path d="M 198.269531 219.277344 L 239.667969 219.277344 L 239.667969 239.878906 L 198.269531 239.878906 Z M 198.269531 219.277344 " clip-rule="nonzero"/></clipPath><clipPath id="clip-2"><path d="M 118.425781 174.222656 L 219 174.222656 L 219 239.878906 L 118.425781 239.878906 Z M 118.425781 174.222656 " clip-rule="nonzero"/></clipPath><clipPath id="clip-3"><path d="M 72 84.65625 L 84 84.65625 L 84 96 L 72 96 Z M 72 84.65625 " clip-rule="nonzero"/></clipPath></defs><path fill="rgb(93.728638%, 20.779419%, 18.818665%)" d="M 18.574219 219.554688 L 38.796875 216.847656 L 38.625 237.710938 L 30.199219 237.691406 L 28.410156 233.09375 L 25.710938 237.847656 L 1.957031 237.738281 C 1 237.734375 0.328125 236.796875 0.632812 235.890625 C 1.585938 233.082031 4.191406 231.160156 7.160156 231.085938 C 9.988281 231.019531 11.921875 229.34375 13.832031 226.773438 L 18.574219 219.554688 " fill-opacity="1" fill-rule="nonzero"/><g clip-path="url(#clip-0)"><path fill="rgb(97.24884%, 83.139038%, 14.509583%)" d="M 118.792969 213.160156 L 118.792969 218.101562 C 118.792969 229.890625 109.40625 239.539062 97.613281 239.871094 C 90.328125 240.074219 83.488281 236.378906 79.667969 230.179688 L 60.417969 198.910156 L 47.570312 230.671875 C 47.570312 230.671875 18.96875 220.214844 18.574219 219.554688 C 18.273438 219.058594 36.972656 192.019531 46.289062 178.609375 C 49.164062 174.472656 54.78125 173.3125 59.0625 175.976562 L 118.792969 213.160156 " fill-opacity="1" fill-rule="nonzero"/></g><path fill="rgb(97.24884%, 83.139038%, 14.509583%)" d="M 15.359375 129.511719 L 24.960938 156.796875 L 30.453125 156.566406 L 42.898438 155.71875 L 45.355469 157.898438 L 46.617188 157.527344 L 47.027344 154.410156 L 55.738281 151.222656 L 45.125 124.285156 L 31.953125 128.609375 L 15.359375 129.511719 " fill-opacity="1" fill-rule="nonzero"/><path fill="rgb(90.19928%, 39.219666%, 55.288696%)" d="M 91.082031 148.605469 C 91.082031 148.605469 91.070312 137.933594 87.851562 130.734375 L 85.359375 131.511719 C 82.074219 132.535156 78.550781 130.917969 77.191406 127.757812 L 76.097656 125.214844 L 72.539062 126.503906 L 72.539062 115.90625 L 70.492188 110.382812 L 86.246094 111.742188 L 88.140625 115.378906 L 96.164062 117.496094 L 102.527344 133.71875 L 102.90625 148.605469 L 91.925781 152.539062 L 91.082031 148.605469 " fill-opacity="1" fill-rule="nonzero"/><path fill="rgb(10.5896%, 23.529053%, 37.649536%)" d="M 71.53125 113.1875 L 87.871094 111.429688 L 93.71875 128.589844 L 105.984375 118.109375 C 105.984375 118.109375 99.71875 93.945312 82.429688 93.902344 C 72.832031 93.878906 65.949219 103.058594 68.375 112.339844 C 68.5625 113.066406 68.71875 113.492188 68.71875 113.492188 L 71.53125 113.1875 " fill-opacity="1" fill-rule="nonzero"/><path fill="rgb(90.19928%, 39.219666%, 55.288696%)" d="M 92.667969 112.070312 C 92.667969 114.585938 90.625 116.625 88.109375 116.625 C 85.589844 116.625 83.550781 114.585938 83.550781 112.070312 C 83.550781 109.550781 85.589844 107.511719 88.109375 107.511719 C 90.625 107.511719 92.667969 109.550781 92.667969 112.070312 " fill-opacity="1" fill-rule="nonzero"/><path fill="rgb(93.728638%, 20.779419%, 18.818665%)" d="M 83.003906 121.546875 C 83.375 122.375 82.664062 123.5 81.421875 124.054688 C 80.171875 124.613281 78.863281 124.394531 78.492188 123.570312 C 78.121094 122.742188 78.832031 121.621094 80.078125 121.0625 C 81.324219 120.503906 82.632812 120.722656 83.003906 121.546875 " fill-opacity="1" fill-rule="nonzero"/><path fill="rgb(10.5896%, 23.529053%, 37.649536%)" d="M 159.632812 131.96875 L 148.871094 134.5 L 149.066406 116.921875 L 146.070312 119.421875 L 140.160156 135.960938 C 140.160156 135.960938 128.640625 139.644531 122.054688 127.226562 C 122.054688 127.226562 127.519531 124.347656 129.398438 116.101562 C 131.28125 107.863281 135.0625 92.757812 150.042969 95.144531 C 154.96875 95.929688 157.859375 96.976562 160.308594 98.515625 C 160.308594 98.515625 169.472656 103.128906 166.269531 124.710938 C 165.742188 128.269531 163.109375 131.152344 159.632812 131.96875 " fill-opacity="1" fill-rule="nonzero"/><path fill="rgb(93.728638%, 20.779419%, 18.818665%)" d="M 153.492188 118.667969 C 153.25 119.367188 153.902344 120.230469 154.949219 120.589844 C 156 120.953125 157.039062 120.683594 157.28125 119.980469 C 157.519531 119.28125 156.863281 118.421875 155.816406 118.054688 C 154.769531 117.691406 153.726562 117.964844 153.492188 118.667969 " fill-opacity="1" fill-rule="nonzero"/><path fill="rgb(90.19928%, 39.219666%, 55.288696%)" d="M 140.726562 126.917969 L 143.890625 120.753906 L 147.082031 114.683594 C 147.664062 114.964844 148.324219 115.09375 149.011719 115.03125 C 151.042969 114.847656 152.542969 113.035156 152.363281 110.984375 C 152.347656 110.832031 152.324219 110.683594 152.292969 110.539062 L 162.78125 108.65625 L 161.527344 113.304688 L 162.296875 121.933594 L 159.332031 121.148438 L 158.636719 123.296875 C 158.519531 123.644531 158.375 123.972656 158.203125 124.285156 L 155.003906 121.429688 L 156.363281 126.222656 C 155.195312 126.964844 153.753906 127.265625 152.3125 126.949219 L 150.242188 126.5 C 148.164062 132.59375 148.933594 141.285156 148.933594 141.285156 L 148.535156 144.550781 L 139.386719 142.148438 L 140.726562 126.917969 " fill-opacity="1" fill-rule="nonzero"/><path fill="rgb(93.728638%, 20.779419%, 18.818665%)" d="M 153.492188 118.667969 C 153.25 119.367188 153.902344 120.230469 154.949219 120.589844 C 156 120.953125 157.039062 120.683594 157.28125 119.980469 C 157.519531 119.28125 156.863281 118.421875 155.816406 118.054688 C 154.769531 117.691406 153.726562 117.964844 153.492188 118.667969 " fill-opacity="1" fill-rule="nonzero"/><path fill="rgb(10.5896%, 23.529053%, 37.649536%)" d="M 147.082031 114.683594 C 147.082031 114.683594 150.089844 138.582031 128.457031 137.847656 C 116.480469 137.4375 112.195312 130.6875 110.753906 124.746094 C 109.796875 120.78125 113.132812 117.167969 117.160156 117.597656 C 121.984375 118.113281 128.121094 116.925781 131.328125 108.972656 C 136.84375 95.285156 140.007812 118.625 140.007812 118.625 L 147.082031 114.683594 " fill-opacity="1" fill-rule="nonzero"/><path fill="rgb(10.5896%, 23.529053%, 37.649536%)" d="M 158.367188 116.566406 C 158.574219 116.566406 158.75 116.414062 158.769531 116.199219 L 158.957031 114.398438 C 158.976562 114.171875 158.816406 113.972656 158.59375 113.949219 C 158.390625 113.929688 158.171875 114.089844 158.148438 114.316406 L 157.96875 116.117188 C 157.945312 116.339844 158.105469 116.542969 158.328125 116.566406 C 158.339844 116.566406 158.355469 116.566406 158.367188 116.566406 " fill-opacity="1" fill-rule="nonzero"/><path fill="rgb(10.5896%, 23.529053%, 37.649536%)" d="M 155.863281 113.730469 C 155.980469 113.730469 156.09375 113.679688 156.175781 113.582031 C 157.410156 112.070312 159.265625 111.933594 159.285156 111.933594 C 159.503906 111.917969 159.675781 111.722656 159.664062 111.5 C 159.648438 111.273438 159.453125 111.105469 159.234375 111.117188 C 159.144531 111.121094 157.019531 111.269531 155.550781 113.0625 C 155.40625 113.234375 155.433594 113.492188 155.605469 113.636719 C 155.679688 113.699219 155.769531 113.730469 155.863281 113.730469 " fill-opacity="1" fill-rule="nonzero"/><path fill="rgb(90.19928%, 39.219666%, 55.288696%)" d="M 135.320312 133.070312 L 144.503906 139.347656 L 149.066406 116.921875 L 147.222656 117.339844 L 135.320312 133.070312 " fill-opacity="1" fill-rule="nonzero"/><path fill="rgb(90.19928%, 39.219666%, 55.288696%)" d="M 75.890625 182.476562 L 71.085938 189.609375 C 68.824219 192.957031 63.929688 193.078125 61.507812 189.835938 L 38.167969 158.574219 L 34.597656 157.644531 C 32.273438 157.042969 30.824219 154.726562 31.304688 152.371094 L 33.238281 142.875 C 33.429688 141.9375 34.253906 141.265625 35.207031 141.265625 C 36.386719 141.265625 37.460938 141.949219 37.957031 143.023438 L 43.683594 155.375 L 47.027344 154.410156 L 63.78125 168.878906 L 75.890625 173.195312 L 75.890625 182.476562 " fill-opacity="1" fill-rule="nonzero"/><g clip-path="url(#clip-1)"><path fill="rgb(97.24884%, 83.139038%, 14.509583%)" d="M 218.984375 219.394531 L 198.308594 219.460938 L 202.589844 239.878906 L 210.851562 238.199219 L 211.695312 233.339844 L 215.28125 237.46875 L 238.546875 232.683594 C 239.484375 232.492188 239.957031 231.4375 239.476562 230.609375 C 237.992188 228.042969 235.058594 226.675781 232.132812 227.1875 C 229.347656 227.675781 227.117188 226.414062 224.742188 224.273438 L 218.984375 219.394531 " fill-opacity="1" fill-rule="nonzero"/></g><path fill="rgb(31.759644%, 67.83905%, 89.7995%)" d="M 222.199219 129.351562 L 212.597656 156.640625 L 207.105469 156.40625 L 194.65625 155.558594 L 192.203125 157.738281 L 190.941406 157.367188 L 190.535156 154.246094 L 181.820312 151.0625 L 192.433594 124.125 L 205.605469 128.449219 L 222.199219 129.351562 " fill-opacity="1" fill-rule="nonzero"/><path fill="rgb(90.19928%, 39.219666%, 55.288696%)" d="M 161.667969 182.316406 L 166.476562 189.445312 C 168.734375 192.800781 173.628906 192.914062 176.046875 189.675781 L 199.390625 158.414062 L 202.960938 157.484375 C 205.289062 156.882812 206.734375 154.566406 206.253906 152.210938 L 204.320312 142.710938 C 204.128906 141.777344 203.304688 141.105469 202.351562 141.105469 C 201.171875 141.105469 200.097656 141.789062 199.601562 142.859375 L 193.875 155.214844 L 190.535156 154.246094 L 173.777344 168.71875 L 161.667969 173.035156 L 161.667969 182.316406 " fill-opacity="1" fill-rule="nonzero"/><path fill="rgb(93.728638%, 20.779419%, 18.818665%)" d="M 173.777344 168.71875 L 154.882812 144.566406 C 152.03125 140.921875 148.246094 138.105469 143.929688 136.425781 L 135.320312 133.070312 C 135.320312 133.070312 114.734375 162.429688 118.769531 213 L 158.355469 190.585938 L 145.851562 161.425781 L 159.46875 184.78125 L 173.777344 168.71875 " fill-opacity="1" fill-rule="nonzero"/><path fill="rgb(10.5896%, 23.529053%, 37.649536%)" d="M 145.851562 196.140625 L 145.851562 161.425781 L 158.070312 188.53125 Z M 145.851562 196.140625 " fill-opacity="1" fill-rule="nonzero"/><path fill="rgb(10.5896%, 23.529053%, 37.649536%)" d="M 216.664062 222.917969 C 216.472656 222.917969 216.304688 222.785156 216.265625 222.59375 C 216.222656 222.371094 216.363281 222.160156 216.585938 222.113281 L 222.144531 220.996094 C 222.363281 220.953125 222.578125 221.097656 222.621094 221.316406 C 222.667969 221.535156 222.523438 221.75 222.304688 221.796875 L 216.746094 222.910156 C 216.71875 222.917969 216.691406 222.917969 216.664062 222.917969 " fill-opacity="1" fill-rule="nonzero"/><path fill="rgb(10.5896%, 23.529053%, 37.649536%)" d="M 218.941406 225.496094 C 218.753906 225.496094 218.582031 225.363281 218.542969 225.167969 C 218.496094 224.949219 218.640625 224.734375 218.863281 224.691406 L 224.421875 223.574219 C 224.640625 223.527344 224.855469 223.671875 224.902344 223.890625 C 224.945312 224.113281 224.800781 224.324219 224.582031 224.371094 L 219.023438 225.488281 C 218.996094 225.492188 218.96875 225.496094 218.941406 225.496094 " fill-opacity="1" fill-rule="nonzero"/><path fill="rgb(10.5896%, 23.529053%, 37.649536%)" d="M 221.695312 227.789062 C 221.507812 227.789062 221.335938 227.65625 221.296875 227.460938 C 221.25 227.242188 221.394531 227.027344 221.617188 226.984375 L 227.175781 225.863281 C 227.394531 225.820312 227.609375 225.960938 227.65625 226.183594 C 227.699219 226.402344 227.554688 226.617188 227.335938 226.664062 L 221.777344 227.78125 C 221.75 227.785156 221.722656 227.789062 221.695312 227.789062 " fill-opacity="1" fill-rule="nonzero"/><path fill="rgb(10.5896%, 23.529053%, 37.649536%)" d="M 200.414062 141.511719 C 200.363281 141.511719 200.3125 141.5 200.261719 141.480469 C 200.050781 141.394531 199.953125 141.15625 200.039062 140.949219 L 205.230469 128.296875 C 205.3125 128.085938 205.550781 127.988281 205.757812 128.074219 C 205.96875 128.15625 206.066406 128.394531 205.980469 128.601562 L 200.792969 141.257812 C 200.726562 141.417969 200.574219 141.511719 200.414062 141.511719 " fill-opacity="1" fill-rule="nonzero"/><g clip-path="url(#clip-2)"><path fill="rgb(93.728638%, 20.779419%, 18.818665%)" d="M 218.984375 219.394531 C 218.585938 220.058594 189.984375 230.511719 189.984375 230.511719 L 180.152344 226.832031 L 168.269531 235.609375 L 144.203125 239.378906 C 142.996094 239.601562 141.769531 239.71875 140.523438 239.71875 C 140.328125 239.71875 140.136719 239.714844 139.941406 239.707031 C 128.152344 239.375 118.765625 229.730469 118.765625 217.9375 L 118.765625 213 L 178.496094 175.816406 C 182.777344 173.15625 188.394531 174.3125 191.269531 178.449219 C 200.589844 191.863281 219.28125 218.894531 218.984375 219.394531 " fill-opacity="1" fill-rule="nonzero"/></g><path fill="rgb(31.759644%, 67.83905%, 89.7995%)" d="M 63.78125 168.878906 L 82.675781 144.730469 C 85.53125 141.078125 89.3125 138.269531 93.628906 136.585938 L 102.234375 133.230469 C 102.234375 133.230469 122.824219 162.589844 118.792969 213.160156 L 81.390625 195.570312 L 91.707031 161.589844 L 78.089844 184.941406 L 63.78125 168.878906 " fill-opacity="1" fill-rule="nonzero"/><path fill="rgb(10.5896%, 23.529053%, 37.649536%)" d="M 88.28125 198.808594 L 91.707031 161.589844 L 81.390625 195.570312 Z M 88.28125 198.808594 " fill-opacity="1" fill-rule="nonzero"/><path fill="rgb(10.5896%, 23.529053%, 37.649536%)" d="M 80.617188 231.980469 C 80.476562 231.980469 80.34375 231.910156 80.269531 231.789062 L 60.492188 199.808594 L 47.949219 230.824219 C 47.863281 231.03125 47.628906 231.132812 47.417969 231.050781 C 47.210938 230.964844 47.109375 230.726562 47.195312 230.519531 L 60.339844 198.011719 L 80.960938 231.359375 C 81.078125 231.550781 81.019531 231.800781 80.828125 231.917969 C 80.761719 231.960938 80.6875 231.980469 80.617188 231.980469 " fill-opacity="1" fill-rule="nonzero"/><path fill="rgb(10.5896%, 23.529053%, 37.649536%)" d="M 54.269531 200.257812 C 54.085938 200.257812 53.921875 200.132812 53.875 199.945312 C 53.824219 199.730469 53.957031 199.507812 54.175781 199.453125 L 66.394531 196.527344 C 66.613281 196.472656 66.832031 196.605469 66.882812 196.828125 C 66.9375 197.042969 66.804688 197.265625 66.585938 197.316406 L 54.367188 200.25 C 54.335938 200.257812 54.300781 200.257812 54.269531 200.257812 " fill-opacity="1" fill-rule="nonzero"/><path fill="rgb(10.5896%, 23.529053%, 37.649536%)" d="M 21.402344 223.867188 L 15.734375 223.867188 C 15.507812 223.867188 15.328125 223.679688 15.328125 223.457031 C 15.328125 223.230469 15.507812 223.050781 15.734375 223.050781 L 21.402344 223.050781 C 21.628906 223.050781 21.808594 223.230469 21.808594 223.457031 C 21.808594 223.679688 21.628906 223.867188 21.402344 223.867188 " fill-opacity="1" fill-rule="nonzero"/><path fill="rgb(10.5896%, 23.529053%, 37.649536%)" d="M 19.679688 226.839844 L 14.007812 226.839844 C 13.785156 226.839844 13.601562 226.65625 13.601562 226.429688 C 13.601562 226.207031 13.785156 226.023438 14.007812 226.023438 L 19.679688 226.023438 C 19.902344 226.023438 20.085938 226.207031 20.085938 226.429688 C 20.085938 226.65625 19.902344 226.839844 19.679688 226.839844 " fill-opacity="1" fill-rule="nonzero"/><path fill="rgb(10.5896%, 23.529053%, 37.649536%)" d="M 17.429688 229.628906 L 11.757812 229.628906 C 11.535156 229.628906 11.351562 229.445312 11.351562 229.222656 C 11.351562 228.996094 11.535156 228.816406 11.757812 228.816406 L 17.429688 228.816406 C 17.65625 228.816406 17.839844 228.996094 17.839844 229.222656 C 17.839844 229.445312 17.65625 229.628906 17.429688 229.628906 " fill-opacity="1" fill-rule="nonzero"/><path fill="rgb(10.5896%, 23.529053%, 37.649536%)" d="M 83.074219 132.269531 C 80.347656 132.269531 77.820312 130.632812 76.761719 127.976562 L 75.867188 125.734375 L 72.132812 127.082031 L 72.132812 115.980469 L 70.570312 111.769531 L 71.332031 111.484375 L 72.945312 115.90625 L 72.945312 125.921875 L 76.328125 124.699219 L 77.519531 127.675781 C 78.671875 130.558594 81.792969 132.078125 84.777344 131.207031 L 87.738281 130.347656 L 87.964844 131.125 L 85.003906 131.992188 C 84.359375 132.179688 83.710938 132.269531 83.074219 132.269531 " fill-opacity="1" fill-rule="nonzero"/><path fill="rgb(10.5896%, 23.529053%, 37.649536%)" d="M 86.277344 115.324219 C 86.085938 115.324219 85.917969 115.1875 85.878906 114.996094 C 85.511719 113.144531 85.703125 109.402344 89.078125 108.523438 C 89.296875 108.460938 89.519531 108.597656 89.574219 108.8125 C 89.632812 109.03125 89.503906 109.253906 89.285156 109.3125 C 87.839844 109.6875 86.957031 110.71875 86.671875 112.367188 C 86.449219 113.648438 86.675781 114.824219 86.679688 114.835938 C 86.722656 115.058594 86.578125 115.273438 86.359375 115.3125 C 86.332031 115.320312 86.304688 115.324219 86.277344 115.324219 " fill-opacity="1" fill-rule="nonzero"/><path fill="rgb(10.5896%, 23.529053%, 37.649536%)" d="M 90.9375 113.570312 C 90.816406 113.570312 90.699219 113.515625 90.617188 113.410156 C 90.554688 113.335938 89.222656 111.699219 86.550781 111.652344 C 86.324219 111.648438 86.144531 111.464844 86.148438 111.242188 C 86.152344 111.015625 86.355469 110.839844 86.566406 110.839844 C 89.644531 110.894531 91.195312 112.828125 91.257812 112.910156 C 91.398438 113.085938 91.367188 113.34375 91.1875 113.480469 C 91.113281 113.542969 91.027344 113.570312 90.9375 113.570312 " fill-opacity="1" fill-rule="nonzero"/><path fill="rgb(10.5896%, 23.529053%, 37.649536%)" d="M 78.828125 120.128906 C 78.660156 120.128906 78.503906 120.027344 78.441406 119.863281 L 77.847656 118.25 C 77.769531 118.039062 77.875 117.804688 78.089844 117.726562 C 78.296875 117.644531 78.535156 117.757812 78.609375 117.964844 L 79.210938 119.582031 C 79.285156 119.792969 79.175781 120.027344 78.96875 120.105469 C 78.921875 120.121094 78.875 120.128906 78.828125 120.128906 " fill-opacity="1" fill-rule="nonzero"/><path fill="rgb(10.5896%, 23.529053%, 37.649536%)" d="M 81.183594 116.609375 C 81.078125 116.609375 80.972656 116.570312 80.894531 116.488281 C 79.070312 114.667969 76.863281 115.300781 76.839844 115.304688 C 76.625 115.367188 76.398438 115.25 76.335938 115.03125 C 76.269531 114.816406 76.390625 114.589844 76.609375 114.523438 C 76.714844 114.492188 79.308594 113.75 81.472656 115.914062 C 81.628906 116.074219 81.628906 116.332031 81.472656 116.488281 C 81.390625 116.570312 81.289062 116.609375 81.183594 116.609375 " fill-opacity="1" fill-rule="nonzero"/><path fill="rgb(10.5896%, 23.529053%, 37.649536%)" d="M 77.976562 129.714844 C 77.777344 129.714844 77.605469 129.574219 77.574219 129.371094 C 77.539062 129.152344 77.691406 128.941406 77.914062 128.90625 C 77.9375 128.902344 80.378906 128.496094 80.785156 126.773438 C 80.839844 126.554688 81.058594 126.417969 81.277344 126.472656 C 81.496094 126.523438 81.632812 126.742188 81.578125 126.960938 C 81.042969 129.21875 78.164062 129.691406 78.039062 129.710938 C 78.019531 129.714844 77.996094 129.714844 77.976562 129.714844 " fill-opacity="1" fill-rule="nonzero"/><path fill="rgb(10.5896%, 23.529053%, 37.649536%)" d="M 37.144531 141.671875 C 36.984375 141.671875 36.832031 141.578125 36.765625 141.417969 L 31.578125 128.765625 C 31.492188 128.554688 31.589844 128.320312 31.800781 128.234375 C 32.007812 128.148438 32.246094 128.246094 32.328125 128.453125 L 37.519531 141.109375 C 37.605469 141.320312 37.507812 141.554688 37.296875 141.640625 C 37.246094 141.664062 37.195312 141.671875 37.144531 141.671875 " fill-opacity="1" fill-rule="nonzero"/><path fill="rgb(10.5896%, 23.529053%, 37.649536%)" d="M 159.46875 185.1875 C 159.375 185.1875 159.277344 185.15625 159.199219 185.085938 C 159.03125 184.9375 159.015625 184.679688 159.167969 184.511719 L 173.246094 168.703125 L 170.148438 164.742188 L 156.703125 179.792969 C 156.554688 179.957031 156.296875 179.972656 156.128906 179.824219 C 155.960938 179.671875 155.949219 179.417969 156.097656 179.25 L 170.191406 163.476562 L 174.308594 168.734375 L 159.773438 185.054688 C 159.691406 185.144531 159.582031 185.1875 159.46875 185.1875 " fill-opacity="1" fill-rule="nonzero"/><path fill="rgb(10.5896%, 23.529053%, 37.649536%)" d="M 168.269531 236.015625 C 168.140625 236.015625 168.015625 235.957031 167.9375 235.84375 C 167.808594 235.660156 167.851562 235.40625 168.035156 235.277344 L 200.179688 212.667969 C 200.367188 212.539062 200.621094 212.582031 200.746094 212.765625 C 200.878906 212.949219 200.835938 213.203125 200.648438 213.332031 L 168.503906 235.941406 C 168.433594 235.992188 168.351562 236.015625 168.269531 236.015625 " fill-opacity="1" fill-rule="nonzero"/><path fill="rgb(10.5896%, 23.529053%, 37.649536%)" d="M 189.984375 230.949219 L 180.011719 227.210938 C 179.800781 227.132812 179.695312 226.898438 179.773438 226.6875 C 179.851562 226.476562 180.089844 226.371094 180.296875 226.449219 L 189.984375 230.078125 L 218.835938 219.015625 C 219.046875 218.933594 219.285156 219.039062 219.367188 219.25 C 219.445312 219.460938 219.339844 219.695312 219.128906 219.773438 L 189.984375 230.949219 " fill-opacity="1" fill-rule="nonzero"/><path fill="rgb(90.19928%, 39.219666%, 55.288696%)" d="M 145.046875 111.660156 C 145.046875 113.796875 146.78125 115.53125 148.921875 115.53125 C 151.0625 115.53125 152.796875 113.796875 152.796875 111.660156 C 152.796875 109.519531 151.0625 107.785156 148.921875 107.785156 C 146.78125 107.785156 145.046875 109.519531 145.046875 111.660156 " fill-opacity="1" fill-rule="nonzero"/><path fill="rgb(10.5896%, 23.529053%, 37.649536%)" d="M 150.480469 114.019531 C 150.453125 114.019531 150.429688 114.019531 150.402344 114.011719 C 150.179688 113.96875 150.035156 113.753906 150.082031 113.535156 C 150.105469 113.410156 150.652344 110.484375 148.386719 109.890625 C 148.167969 109.835938 148.039062 109.613281 148.09375 109.394531 C 148.148438 109.175781 148.378906 109.046875 148.589844 109.101562 C 151 109.734375 151.140625 112.382812 150.878906 113.691406 C 150.839844 113.886719 150.671875 114.019531 150.480469 114.019531 " fill-opacity="1" fill-rule="nonzero"/><path fill="rgb(10.5896%, 23.529053%, 37.649536%)" d="M 147.285156 112.816406 C 147.195312 112.816406 147.109375 112.789062 147.03125 112.730469 C 146.855469 112.589844 146.824219 112.335938 146.964844 112.160156 C 147.007812 112.101562 148.109375 110.726562 150.28125 110.691406 C 150.515625 110.683594 150.691406 110.867188 150.695312 111.089844 C 150.699219 111.316406 150.523438 111.5 150.296875 111.503906 C 148.523438 111.535156 147.640625 112.617188 147.605469 112.664062 C 147.523438 112.761719 147.402344 112.816406 147.285156 112.816406 " fill-opacity="1" fill-rule="nonzero"/><g clip-path="url(#clip-3)"><path fill="rgb(10.5896%, 23.529053%, 37.649536%)" d="M 83.441406 89.957031 C 83.441406 92.882812 81.066406 95.257812 78.136719 95.257812 C 75.207031 95.257812 72.832031 92.882812 72.832031 89.957031 C 72.832031 87.027344 75.207031 84.652344 78.136719 84.652344 C 81.066406 84.652344 83.441406 87.027344 83.441406 89.957031 " fill-opacity="1" fill-rule="nonzero"/></g><path fill="rgb(93.728638%, 20.779419%, 18.818665%)" d="M 76.707031 95.472656 C 76.519531 95.472656 76.351562 95.34375 76.3125 95.15625 C 76.261719 94.9375 76.394531 94.714844 76.617188 94.667969 L 81.5625 93.527344 C 81.785156 93.476562 82.003906 93.613281 82.054688 93.832031 C 82.101562 94.050781 81.96875 94.269531 81.75 94.320312 L 76.800781 95.460938 C 76.769531 95.464844 76.738281 95.472656 76.707031 95.472656 " fill-opacity="1" fill-rule="nonzero"/><path fill="rgb(10.5896%, 23.529053%, 37.649536%)" d="M 38.167969 158.980469 C 38.148438 158.980469 38.128906 158.980469 38.113281 158.976562 L 35.371094 158.609375 C 33.894531 158.410156 32.554688 157.59375 31.695312 156.375 C 30.835938 155.15625 30.523438 153.621094 30.832031 152.164062 L 32.089844 146.292969 C 32.265625 145.480469 32.871094 144.855469 33.679688 144.65625 C 34.484375 144.453125 35.316406 144.726562 35.851562 145.363281 L 44 155.113281 C 44.144531 155.285156 44.121094 155.542969 43.949219 155.6875 C 43.773438 155.832031 43.515625 155.808594 43.375 155.636719 L 35.222656 145.886719 C 34.886719 145.484375 34.382812 145.316406 33.875 145.441406 C 33.363281 145.570312 32.996094 145.953125 32.886719 146.464844 L 31.632812 152.335938 C 31.363281 153.585938 31.625 154.859375 32.363281 155.90625 C 33.101562 156.957031 34.210938 157.632812 35.480469 157.804688 L 38.21875 158.171875 C 38.441406 158.199219 38.597656 158.40625 38.570312 158.628906 C 38.542969 158.832031 38.367188 158.980469 38.167969 158.980469 " fill-opacity="1" fill-rule="nonzero"/><path fill="rgb(10.5896%, 23.529053%, 37.649536%)" d="M 199.300781 158.894531 C 199.101562 158.894531 198.925781 158.746094 198.898438 158.542969 C 198.867188 158.316406 199.023438 158.113281 199.246094 158.082031 L 201.988281 157.714844 C 203.257812 157.542969 204.367188 156.871094 205.105469 155.820312 C 205.84375 154.769531 206.105469 153.5 205.835938 152.246094 L 204.582031 146.375 C 204.472656 145.863281 204.101562 145.480469 203.59375 145.355469 C 203.085938 145.230469 202.582031 145.394531 202.242188 145.796875 L 194.09375 155.550781 C 193.953125 155.722656 193.691406 155.746094 193.519531 155.601562 C 193.347656 155.457031 193.324219 155.199219 193.46875 155.027344 L 201.621094 145.277344 C 202.148438 144.640625 202.984375 144.367188 203.789062 144.566406 C 204.59375 144.765625 205.203125 145.394531 205.378906 146.203125 L 206.632812 152.074219 C 206.945312 153.53125 206.632812 155.070312 205.773438 156.289062 C 204.914062 157.507812 203.574219 158.324219 202.09375 158.519531 L 199.359375 158.890625 C 199.339844 158.894531 199.320312 158.894531 199.300781 158.894531 " fill-opacity="1" fill-rule="nonzero"/><path fill="rgb(10.5896%, 23.529053%, 37.649536%)" d="M 187.230469 175.757812 C 187.148438 175.757812 187.066406 175.734375 186.996094 175.683594 C 186.8125 175.550781 186.773438 175.296875 186.902344 175.117188 L 199.023438 158.222656 C 199.152344 158.039062 199.40625 158 199.585938 158.128906 C 199.765625 158.261719 199.804688 158.515625 199.675781 158.695312 L 187.554688 175.589844 C 187.476562 175.699219 187.351562 175.757812 187.230469 175.757812 " fill-opacity="1" fill-rule="nonzero"/></svg>