<?xml version="1.0" encoding="UTF-8"?><svg xmlns="http://www.w3.org/2000/svg" xmlns:xlink="http://www.w3.org/1999/xlink" contentScriptType="text/ecmascript" width="112.5" zoomAndPan="magnify" contentStyleType="text/css" viewBox="0 0 112.5 112.499997" height="112.499997" preserveAspectRatio="xMidYMid meet" version="1.0"><defs><clipPath id="clip-0"><path d="M 86 48 L 106.875 48 L 106.875 64 L 86 64 Z M 86 48 " clip-rule="nonzero"/></clipPath><clipPath id="clip-1"><path d="M 86 47 L 106.875 47 L 106.875 66 L 86 66 Z M 86 47 " clip-rule="nonzero"/></clipPath></defs><path fill="rgb(100%, 100%, 100%)" d="M 41.25 11.332031 L 42.261719 28.640625 C 42.261719 28.640625 41.035156 44.230469 40.949219 45.226562 C 40.863281 46.222656 39.320312 62.902344 39.320312 62.902344 C 39.320312 62.902344 31.898438 64.472656 32.167969 64.84375 C 32.4375 65.210938 24.25 68.488281 24.25 68.488281 C 24.25 68.488281 21.265625 68.238281 19.855469 68.148438 C 18.441406 68.058594 8.824219 66.816406 6.925781 72.421875 C 6.925781 72.421875 6.046875 74.886719 8.070312 77.726562 C 10.09375 80.570312 11.480469 82.441406 17.960938 85.644531 C 24.445312 88.847656 32.882812 93.078125 35.230469 92.886719 C 37.574219 92.691406 37.636719 90.90625 37.636719 90.90625 L 48.832031 91.90625 L 48.175781 93.445312 L 45.339844 94.015625 L 43.25 109.308594 L 45.476562 108.023438 L 47.507812 104.300781 L 52.050781 93.988281 L 53.53125 93.066406 L 54.339844 94.691406 L 69.304688 92.886719 L 70.316406 91.40625 C 70.316406 91.40625 59.839844 90.199219 57.765625 90.109375 L 60.972656 88.269531 C 60.972656 88.269531 62.191406 89.214844 62.960938 88.84375 C 63.734375 88.472656 66.34375 86.078125 66.34375 86.078125 C 66.34375 86.078125 80.226562 73.746094 81.785156 71.621094 C 83.34375 69.496094 88.621094 63.640625 82.320312 62.300781 C 82.320312 62.300781 73.214844 64.96875 69.632812 64.722656 L 63.460938 68.59375 L 63.960938 61.972656 L 63.460938 62.902344 C 63.460938 62.902344 62.101562 60.574219 60.21875 61.738281 C 58.335938 62.902344 54.792969 64.886719 54.792969 64.886719 L 54.5625 54.597656 L 51.34375 36.246094 L 52.222656 29.613281 C 52.222656 29.613281 55.882812 31.296875 56.925781 31.5 C 57.96875 31.707031 65.722656 24.558594 65.851562 24.058594 C 65.984375 23.5625 67.222656 14.894531 67.15625 14.570312 C 67.089844 14.242188 62.398438 8.3125 61.421875 8.25 C 60.445312 8.183594 48.042969 8.25 48.042969 8.25 C 48.042969 8.25 41.601562 11.421875 41.25 11.332031 " fill-opacity="1" fill-rule="nonzero"/><g clip-path="url(#clip-0)"><path fill="rgb(100%, 100%, 100%)" d="M 86.707031 57.78125 C 86.769531 57.65625 95.359375 57.570312 95.359375 57.570312 L 97.65625 55.671875 L 95.582031 49.65625 C 95.582031 49.65625 95.425781 48.878906 96.851562 48.601562 C 98.28125 48.324219 102.410156 47.886719 104.332031 48.324219 C 106.253906 48.765625 105.722656 49.703125 105.722656 49.703125 L 105.683594 52.3125 C 105.683594 52.3125 105.789062 53.460938 105.90625 53.988281 C 106.019531 54.519531 106.039062 56.792969 106.039062 56.792969 C 106.039062 56.792969 106.460938 59.449219 104.941406 60.675781 C 103.425781 61.90625 104.1875 62.917969 104.1875 62.917969 C 104.1875 62.917969 100.871094 63.765625 100.710938 63.636719 C 100.550781 63.511719 97.910156 62.910156 97.910156 62.910156 L 97.210938 60.128906 L 94.753906 60.128906 L 86.402344 61.425781 L 86.707031 57.78125 " fill-opacity="1" fill-rule="nonzero"/></g><path fill="rgb(100%, 100%, 100%)" d="M 54.152344 45.226562 C 54.0625 47.414062 54.019531 49.597656 54.011719 51.785156 C 54.011719 52.203125 54.65625 52.203125 54.65625 51.785156 C 54.664062 49.597656 54.707031 47.414062 54.792969 45.226562 C 54.8125 44.8125 54.167969 44.8125 54.152344 45.226562 " fill-opacity="1" fill-rule="nonzero"/><path fill="rgb(100%, 100%, 100%)" d="M 38.46875 54.050781 C 38.664062 53.683594 38.109375 53.359375 37.910156 53.722656 C 34.964844 59.222656 31.507812 65.585938 33.1875 72 C 33.21875 72.117188 33.292969 72.183594 33.382812 72.210938 C 33.519531 71.96875 33.65625 71.808594 33.78125 71.703125 C 32.226562 65.519531 35.628906 59.34375 38.46875 54.050781 " fill-opacity="1" fill-rule="nonzero"/><path fill="rgb(63.139343%, 70.979309%, 79.998779%)" d="M 54.65625 51.785156 C 54.65625 52.203125 54.011719 52.203125 54.011719 51.785156 C 54.019531 49.597656 54.0625 47.414062 54.152344 45.226562 C 54.167969 44.8125 54.8125 44.8125 54.792969 45.226562 C 54.707031 47.414062 54.664062 49.597656 54.65625 51.785156 Z M 77.308594 56.777344 C 73.085938 56.015625 70.339844 53.421875 65.808594 45.960938 C 61.277344 38.5 59.277344 37.535156 57.230469 36.167969 C 55.183594 34.800781 51.542969 34.816406 51.542969 34.816406 C 51.542969 34.816406 51.050781 37.855469 50.644531 40.242188 C 50.238281 42.625 49.648438 48.046875 49.53125 50.1875 C 49.414062 52.324219 50.175781 59.46875 50.34375 60.863281 C 50.511719 62.257812 51.191406 68.050781 51.191406 68.050781 L 49.53125 69.925781 C 49.53125 69.925781 52.875 66.199219 54.792969 65.15625 C 54.792969 65.15625 54.894531 56.007812 55.207031 54.378906 C 55.207031 54.378906 59.195312 60.816406 60.101562 61.601562 C 60.101562 61.601562 60.804688 60.871094 61.804688 61.613281 C 62.804688 62.355469 62.941406 62.691406 62.941406 62.691406 L 51.804688 70.5625 C 51.804688 70.5625 49.40625 71.550781 47.097656 70.910156 L 35.886719 66.035156 C 35.886719 66.035156 36.664062 64.421875 37.214844 64.160156 C 37.769531 63.902344 38.933594 64.144531 40.277344 64.636719 C 41.621094 65.132812 47.535156 67.882812 49.53125 69.925781 C 47.910156 67.65625 42.261719 65.394531 42.261719 65.394531 C 42.261719 65.394531 44.175781 55.203125 44.894531 50.183594 C 45.617188 45.164062 45.152344 36.828125 45.152344 36.828125 C 43.128906 37.480469 37.980469 35.148438 37.980469 35.148438 C 34.472656 37.210938 31.539062 41.667969 28.4375 46.589844 C 25.335938 51.515625 23.125 59.457031 22.820312 61.050781 C 22.511719 62.648438 21.480469 68.335938 25.394531 72.570312 C 29.308594 76.804688 32.558594 75.855469 32.558594 75.855469 C 32.605469 75.988281 32.675781 76.09375 32.765625 76.179688 C 32.59375 75.882812 32.644531 75.257812 32.847656 73.957031 C 32.980469 73.121094 33.175781 72.574219 33.382812 72.210938 C 33.292969 72.183594 33.21875 72.117188 33.1875 72 C 31.507812 65.585938 34.964844 59.222656 37.910156 53.722656 C 38.109375 53.359375 38.664062 53.683594 38.46875 54.050781 C 35.628906 59.34375 32.226562 65.519531 33.78125 71.703125 C 34 71.519531 34.167969 71.511719 34.167969 71.511719 C 34.167969 71.511719 36.1875 72.085938 37.199219 72.421875 C 38.207031 72.757812 39.117188 72.617188 38.140625 74.378906 C 37.160156 76.140625 34.871094 76.398438 33.742188 76.429688 C 33.558594 76.433594 33.402344 76.4375 33.269531 76.425781 C 33.707031 76.519531 34.167969 76.429688 34.167969 76.429688 L 34.167969 79.027344 C 36.089844 79.339844 51.300781 87.085938 51.300781 87.085938 C 51.300781 87.085938 55.011719 81.890625 56.519531 80.183594 C 58.027344 78.476562 63.070312 74.128906 63.070312 74.128906 L 63.960938 63.933594 C 70.898438 66.210938 77.730469 63.457031 80.140625 62.851562 C 82.554688 62.25 86.832031 61.332031 86.832031 61.332031 L 86.921875 57.917969 C 85.238281 56.722656 81.53125 57.539062 77.308594 56.777344 " fill-opacity="1" fill-rule="nonzero"/><path fill="rgb(6.269836%, 5.879211%, 5.099487%)" d="M 31.929688 28.339844 C 33.28125 31.597656 35.667969 34.347656 38.8125 35.996094 C 42.503906 37.929688 46.636719 37.210938 50.417969 35.933594 C 50.503906 35.90625 50.558594 35.851562 50.59375 35.789062 C 50.65625 35.703125 50.675781 35.582031 50.609375 35.460938 C 48.785156 32.128906 48.089844 28.003906 48.066406 24.148438 C 48.109375 24.054688 48.113281 23.953125 48.070312 23.875 C 48.070312 23.394531 48.082031 22.917969 48.101562 22.453125 C 48.113281 22.238281 47.949219 22.140625 47.785156 22.144531 C 47.785156 22.136719 47.785156 22.136719 47.785156 22.136719 C 42.136719 19.605469 43.945312 14.773438 45.546875 13.96875 C 46.464844 13.503906 47.230469 14.40625 47.710938 15.257812 C 47.820312 15.714844 47.898438 16.171875 47.957031 16.5625 C 47.972656 16.652344 48.015625 16.710938 48.070312 16.746094 C 48.109375 16.855469 48.203125 16.941406 48.359375 16.941406 C 52.988281 16.882812 59.636719 15.640625 62.226562 11.476562 C 62.769531 13.609375 64.246094 15.183594 66.296875 16.070312 C 65.601562 20.183594 64.367188 24.875 60.789062 27.386719 C 58.847656 28.746094 56.339844 29.4375 54.015625 28.808594 C 53.589844 28.695312 53.199219 28.554688 52.835938 28.394531 C 52.78125 28.351562 52.71875 28.324219 52.652344 28.316406 C 51.390625 27.71875 50.449219 26.820312 49.585938 25.546875 C 49.355469 25.203125 48.796875 25.527344 49.03125 25.871094 C 49.9375 27.210938 50.875 28.140625 52.226562 28.800781 C 51.875 29.625 51.679688 30.464844 51.550781 31.320312 C 51.492188 31.40625 51.46875 31.515625 51.507812 31.621094 C 51.378906 32.613281 51.328125 33.625 51.242188 34.648438 C 51.203125 35.058594 51.847656 35.058594 51.886719 34.648438 C 51.953125 33.859375 51.992188 33.074219 52.066406 32.300781 C 55.628906 36.058594 61.867188 36.191406 66.671875 35.828125 C 66.984375 35.808594 67.0625 35.4375 66.902344 35.265625 C 64.523438 27.460938 69.9375 20.148438 69.613281 12.359375 C 69.492188 9.386719 68.523438 6.261719 66.191406 4.269531 C 64.507812 2.832031 61.425781 1.816406 59.28125 2.792969 C 58.464844 2.015625 57.554688 1.351562 56.507812 0.886719 C 54.820312 0.140625 52.859375 0.0195312 51.039062 0.015625 C 47.101562 0.0078125 44.140625 1.367188 41.632812 4.425781 C 36.136719 11.117188 35.609375 20.371094 31.84375 27.9375 C 31.765625 28.097656 31.824219 28.25 31.929688 28.339844 " fill-opacity="1" fill-rule="nonzero"/><path fill="rgb(6.269836%, 5.879211%, 5.099487%)" d="M 63.625 68.875 C 65.894531 67.277344 67.902344 65.960938 70.5625 65.152344 C 70.960938 65.03125 70.792969 64.410156 70.394531 64.53125 C 67.671875 65.359375 65.625 66.679688 63.296875 68.316406 C 62.960938 68.554688 63.285156 69.113281 63.625 68.875 " fill-opacity="1" fill-rule="nonzero"/><path fill="rgb(6.269836%, 5.879211%, 5.099487%)" d="M 51.886719 93.707031 C 51.816406 93.753906 51.773438 93.808594 51.753906 93.875 C 51.75 93.882812 51.746094 93.890625 51.742188 93.902344 C 50.617188 96.914062 49.355469 99.871094 47.929688 102.753906 C 47.269531 104.089844 46.574219 105.40625 45.851562 106.710938 C 45.722656 106.941406 45.570312 107.238281 45.402344 107.566406 C 44.53125 106.777344 44.929688 105.152344 45.085938 104.1875 C 45.273438 103.03125 45.472656 101.871094 45.679688 100.71875 C 46.09375 98.40625 46.550781 96.101562 47.039062 93.804688 C 47.042969 93.785156 47.042969 93.765625 47.042969 93.746094 C 47.382812 93.726562 47.726562 93.730469 48.074219 93.761719 C 48.136719 93.769531 48.183594 93.757812 48.226562 93.738281 C 48.335938 93.71875 48.433594 93.652344 48.488281 93.53125 C 50.398438 88.871094 53.070312 84.582031 56.359375 80.824219 C 56.964844 83 57.921875 85.050781 59.269531 86.875 C 59.601562 87.320312 60 87.8125 60.457031 88.226562 C 57.628906 90.101562 54.765625 91.917969 51.886719 93.707031 Z M 58.3125 90.433594 C 61.046875 90.609375 63.777344 90.859375 66.496094 91.199219 C 67.230469 91.289062 67.960938 91.386719 68.691406 91.492188 C 64.105469 93.339844 59.03125 94.023438 54.164062 93.046875 C 55.539062 92.179688 56.910156 91.308594 58.277344 90.421875 C 58.289062 90.425781 58.296875 90.433594 58.3125 90.433594 Z M 38.136719 90.648438 C 38.292969 90.296875 38.433594 89.945312 38.566406 89.632812 C 39.574219 87.25 40.253906 84.757812 40.65625 82.203125 C 44.105469 83.839844 47.5 85.613281 50.910156 87.257812 C 50.082031 88.652344 49.324219 90.09375 48.644531 91.574219 C 45.125 91.441406 41.628906 91.082031 38.136719 90.648438 Z M 81.535156 62.21875 C 81.121094 62.222656 81.121094 62.867188 81.535156 62.859375 C 82.550781 62.839844 83.347656 62.710938 84.171875 63.488281 C 85.460938 64.703125 84.863281 65.960938 84.222656 67.28125 C 83.367188 69.042969 82.230469 70.652344 80.9375 72.121094 C 78.46875 74.933594 75.523438 77.273438 72.761719 79.78125 C 70.316406 82.128906 67.742188 84.332031 65.261719 86.640625 C 64.558594 87.292969 63.550781 88.570312 62.53125 88.574219 C 62.058594 88.574219 61.621094 88.378906 61.226562 88.085938 C 61.183594 88.019531 61.121094 87.96875 61.046875 87.949219 C 60.371094 87.386719 59.816406 86.5625 59.417969 85.976562 C 58.226562 84.230469 57.394531 82.292969 56.871094 80.25 C 59.464844 77.382812 62.421875 74.835938 65.683594 72.699219 C 66.03125 72.472656 65.707031 71.914062 65.359375 72.144531 C 59.613281 75.910156 54.808594 80.898438 51.246094 86.707031 C 41.871094 82.195312 32.640625 76.730469 22.074219 75.738281 C 21.660156 75.699219 21.664062 76.34375 22.074219 76.382812 C 28.441406 76.980469 34.328125 79.238281 40.054688 81.921875 C 39.738281 83.964844 39.253906 85.972656 38.550781 87.917969 C 38.214844 88.84375 37.855469 89.777344 37.40625 90.65625 C 37.375 90.691406 37.351562 90.738281 37.339844 90.785156 C 37.289062 90.882812 37.242188 90.984375 37.191406 91.082031 C 36.925781 91.554688 36.613281 92.085938 36.125 92.363281 C 35.363281 92.792969 34.332031 92.40625 33.570312 92.175781 C 29.519531 90.960938 25.640625 89.238281 21.972656 87.144531 C 17.015625 84.757812 11.515625 82.957031 8.5625 77.945312 C 7.703125 76.484375 6.808594 74.808594 7.101562 73.066406 C 7.472656 70.871094 9.074219 69.914062 11.042969 69.273438 C 14.882812 68.027344 18.867188 68.140625 22.792969 68.871094 C 23.199219 68.945312 23.371094 68.324219 22.964844 68.25 C 18.574219 67.433594 14.125 67.386719 9.898438 68.996094 C 6.996094 70.101562 5.6875 73.03125 6.859375 75.9375 C 8.027344 78.824219 9.917969 81.269531 12.46875 83.054688 C 15.28125 85.023438 18.574219 86.21875 21.648438 87.699219 L 21.652344 87.699219 C 23.890625 88.980469 26.203125 90.117188 28.59375 91.089844 C 29.695312 91.542969 30.8125 91.953125 31.941406 92.332031 C 33.027344 92.695312 34.292969 93.277344 35.464844 93.203125 C 36.621094 93.128906 37.332031 92.246094 37.84375 91.253906 C 41.34375 91.691406 44.839844 92.058594 48.363281 92.207031 C 48.230469 92.507812 48.097656 92.808594 47.972656 93.113281 C 46.988281 93.03125 46.023438 93.164062 45.09375 93.503906 C 44.96875 93.550781 44.902344 93.644531 44.882812 93.75 C 44.8125 93.785156 44.753906 93.84375 44.722656 93.929688 C 42.828125 99.207031 41.632812 104.671875 41.144531 110.253906 C 41.132812 110.382812 41.191406 110.46875 41.273438 110.515625 C 41.273438 110.613281 41.320312 110.714844 41.429688 110.777344 C 44.367188 112.5 46.324219 107.226562 47.285156 105.417969 C 49.207031 101.792969 50.875 98.042969 52.3125 94.203125 C 52.621094 94.011719 52.929688 93.816406 53.238281 93.625 C 53.242188 93.632812 53.246094 93.644531 53.253906 93.65625 C 53.5625 94.269531 53.621094 95.03125 54.113281 95.542969 C 54.195312 95.632812 54.296875 95.652344 54.386719 95.632812 C 54.421875 95.652344 54.464844 95.664062 54.515625 95.664062 C 60.875 95.96875 67.226562 95.488281 73.472656 94.25 C 74.285156 94.050781 75.515625 93.6875 75.121094 92.5625 C 74.679688 91.3125 72.171875 91.375 71.195312 91.222656 C 67.207031 90.585938 63.191406 90.132812 59.164062 89.847656 C 59.769531 89.453125 60.375 89.054688 60.980469 88.652344 C 61.738281 89.179688 62.609375 89.433594 63.550781 88.960938 C 64.386719 88.546875 65.042969 87.722656 65.714844 87.09375 C 66.519531 86.347656 67.332031 85.613281 68.148438 84.878906 C 69.847656 83.34375 71.5625 81.824219 73.214844 80.238281 C 76.847656 76.941406 80.867188 73.882812 83.578125 69.726562 C 84.496094 68.316406 86.105469 66.023438 85.480469 64.246094 C 84.824219 62.394531 83.203125 62.1875 81.535156 62.21875 " fill-opacity="1" fill-rule="nonzero"/><path fill="rgb(6.269836%, 5.879211%, 5.099487%)" d="M 98.488281 34.839844 C 102.601562 36.589844 95.683594 43.152344 100.496094 44.972656 C 100.886719 45.121094 101.050781 44.496094 100.667969 44.351562 C 96.570312 42.804688 103.339844 36.207031 98.816406 34.285156 C 98.4375 34.125 98.109375 34.679688 98.488281 34.839844 " fill-opacity="1" fill-rule="nonzero"/><path fill="rgb(6.269836%, 5.879211%, 5.099487%)" d="M 101.824219 35.695312 C 105.082031 37.269531 100.082031 42.089844 102.976562 44.394531 C 103.296875 44.648438 103.757812 44.195312 103.433594 43.9375 C 100.667969 41.742188 105.960938 36.984375 102.148438 35.136719 C 101.777344 34.957031 101.449219 35.511719 101.824219 35.695312 " fill-opacity="1" fill-rule="nonzero"/><path fill="rgb(6.269836%, 5.879211%, 5.099487%)" d="M 96.761719 45.625 C 97.035156 45.9375 97.488281 45.480469 97.214844 45.167969 C 96.421875 44.257812 95.96875 43.15625 95.96875 41.941406 C 95.96875 40.925781 96.414062 40.167969 96.769531 39.246094 C 97.167969 38.214844 97.3125 37.09375 96.351562 36.335938 C 96.03125 36.082031 95.570312 36.535156 95.898438 36.792969 C 97.289062 37.894531 95.335938 40.460938 95.324219 41.941406 C 95.316406 43.335938 95.855469 44.585938 96.761719 45.625 " fill-opacity="1" fill-rule="nonzero"/><path fill="rgb(6.269836%, 5.879211%, 5.099487%)" d="M 49.304688 70.152344 C 49.339844 70.1875 49.378906 70.210938 49.417969 70.226562 C 49.527344 70.289062 49.660156 70.285156 49.761719 70.152344 C 51.554688 67.835938 53.898438 66.082031 56.347656 64.511719 C 57.429688 63.816406 58.542969 63.167969 59.636719 62.488281 C 60.027344 62.246094 60.675781 61.660156 61.179688 61.671875 C 61.675781 61.6875 62.421875 62.402344 62.714844 62.75 C 62.980469 63.066406 63.433594 62.609375 63.171875 62.292969 C 62.703125 61.738281 61.800781 60.976562 61.027344 61.023438 C 60.535156 61.054688 60.019531 61.488281 59.625 61.734375 C 58.890625 62.195312 58.144531 62.636719 57.40625 63.089844 C 54.515625 64.863281 51.644531 66.789062 49.5 69.457031 C 47.089844 67.21875 44.144531 65.710938 41.074219 64.574219 C 40.144531 64.226562 38.941406 63.699219 37.945312 63.609375 C 36.898438 63.515625 36.261719 64.785156 35.710938 65.492188 C 35.460938 65.816406 35.914062 66.273438 36.167969 65.945312 C 36.855469 65.070312 37.273438 64.089844 38.476562 64.441406 C 39.527344 64.742188 40.566406 65.050781 41.582031 65.460938 C 44.417969 66.605469 47.089844 68.011719 49.304688 70.152344 " fill-opacity="1" fill-rule="nonzero"/><path fill="rgb(6.269836%, 5.879211%, 5.099487%)" d="M 33.234375 76.078125 C 33.207031 76.078125 33.1875 76.085938 33.164062 76.09375 C 33.160156 76.09375 33.15625 76.089844 33.148438 76.089844 C 32.695312 76.152344 33.210938 73.730469 33.257812 73.496094 C 33.382812 72.847656 33.734375 71.308594 34.765625 71.9375 C 34.800781 71.960938 34.832031 71.972656 34.863281 71.976562 C 35.511719 72.199219 36.164062 72.414062 36.816406 72.632812 C 36.972656 72.683594 37.3125 72.757812 37.566406 72.847656 C 36.355469 73.0625 35.148438 73.089844 33.925781 72.933594 C 33.515625 72.882812 33.519531 73.527344 33.925781 73.578125 C 35.277344 73.75 36.609375 73.695312 37.945312 73.429688 C 38 73.417969 38.042969 73.398438 38.078125 73.371094 C 38.085938 73.410156 38.089844 73.449219 38.09375 73.488281 C 38.0625 73.496094 38.03125 73.503906 38 73.519531 C 36.710938 74.152344 35.359375 74.527344 33.929688 74.636719 C 33.519531 74.671875 33.515625 75.316406 33.929688 75.28125 C 35.28125 75.175781 36.570312 74.855469 37.800781 74.316406 C 37.699219 74.472656 37.589844 74.609375 37.5 74.714844 C 36.367188 76.046875 34.851562 76.125 33.234375 76.078125 Z M 35.050781 71.363281 C 33.664062 70.558594 32.851562 72.207031 32.636719 73.324219 C 32.480469 74.132812 31.585938 76.847656 33.222656 76.71875 C 33.226562 76.71875 33.230469 76.722656 33.234375 76.722656 C 35.386719 76.78125 37.433594 76.40625 38.539062 74.328125 C 38.871094 73.707031 39.0625 72.933594 38.359375 72.5 C 37.433594 71.929688 36.082031 71.707031 35.050781 71.363281 " fill-opacity="1" fill-rule="nonzero"/><path fill="rgb(6.269836%, 5.879211%, 5.099487%)" d="M 50.871094 40.113281 C 51.21875 39.890625 50.898438 39.335938 50.546875 39.558594 C 49.0625 40.507812 46.984375 40.65625 45.535156 39.558594 C 45.207031 39.308594 44.886719 39.867188 45.210938 40.113281 C 46.828125 41.339844 49.214844 41.171875 50.871094 40.113281 " fill-opacity="1" fill-rule="nonzero"/><g clip-path="url(#clip-1)"><path fill="rgb(6.269836%, 5.879211%, 5.099487%)" d="M 97.140625 48.859375 C 98.789062 48.382812 100.632812 48.492188 102.328125 48.542969 C 103.066406 48.535156 103.933594 48.472656 104.640625 48.734375 C 104.929688 48.839844 105.316406 48.953125 105.347656 49.292969 C 105.386719 49.675781 104.460938 49.582031 104.132812 49.609375 C 102.449219 49.734375 100.761719 49.773438 99.078125 49.738281 C 98.355469 49.722656 97.636719 49.707031 96.921875 49.605469 C 96.84375 49.59375 96.132812 49.542969 96.050781 49.445312 C 95.769531 49.097656 96.761719 48.972656 97.140625 48.859375 Z M 105.492188 59.425781 C 105.054688 60.117188 104.183594 60.25 103.441406 60.339844 C 102.066406 58.476562 102.601562 56.082031 103.175781 54.007812 C 103.492188 53.847656 103.820312 53.71875 104.164062 53.628906 C 105.332031 53.898438 105.84375 54.484375 105.707031 55.386719 C 105.808594 55.972656 105.710938 56.660156 105.714844 57.253906 C 105.714844 57.890625 105.839844 58.867188 105.492188 59.425781 Z M 105.84375 60.027344 C 106.675781 59.042969 106.355469 57.355469 106.355469 56.1875 C 106.351562 55.367188 106.523438 54.292969 106.019531 53.59375 C 106.121094 52.25 106.128906 50.902344 106.226562 49.558594 C 106.804688 47.996094 102.972656 47.890625 102.328125 47.898438 C 100.859375 47.855469 99.378906 47.820312 97.925781 48.054688 C 97.140625 48.175781 95.757812 48.320312 95.308594 49.136719 C 95.246094 49.25 95.214844 49.351562 95.210938 49.445312 C 95.191406 49.484375 95.179688 49.53125 95.183594 49.589844 C 95.300781 51.894531 95.65625 54.148438 96.261719 56.375 C 96.265625 56.390625 96.269531 56.40625 96.277344 56.421875 C 95.929688 56.6875 95.589844 56.964844 95.253906 57.25 C 92.5 57.324219 89.742188 57.394531 86.988281 57.46875 C 86.574219 57.480469 86.570312 58.125 86.988281 58.113281 C 89.738281 58.039062 92.492188 57.964844 95.242188 57.894531 C 95.34375 57.925781 95.457031 57.914062 95.558594 57.828125 C 96.832031 56.742188 98.191406 55.78125 99.632812 54.929688 C 99.101562 56.265625 98.089844 57.304688 96.734375 57.898438 C 96.585938 57.960938 96.546875 58.085938 96.574219 58.203125 C 96.574219 58.21875 96.570312 58.234375 96.574219 58.253906 C 96.648438 58.761719 96.730469 59.269531 96.824219 59.773438 C 93.433594 59.765625 90.058594 60.371094 86.746094 61.023438 C 86.339844 61.101562 86.511719 61.722656 86.914062 61.644531 C 90.1875 61 93.507812 60.40625 96.851562 60.414062 C 96.886719 60.414062 96.917969 60.40625 96.945312 60.394531 C 97.222656 61.746094 97.585938 63.074219 98.097656 64.363281 C 98.09375 64.460938 98.140625 64.554688 98.261719 64.609375 C 100.414062 65.53125 102.527344 65.675781 104.699219 64.785156 C 104.757812 64.785156 104.8125 64.757812 104.859375 64.714844 C 104.953125 64.648438 104.980469 64.554688 104.960938 64.460938 C 105.203125 63.082031 105.421875 61.695312 105.554688 60.300781 C 105.65625 60.21875 105.753906 60.128906 105.84375 60.027344 " fill-opacity="1" fill-rule="nonzero"/></g></svg>