<?xml version="1.0" encoding="UTF-8"?><svg xmlns="http://www.w3.org/2000/svg" xmlns:xlink="http://www.w3.org/1999/xlink" contentScriptType="text/ecmascript" width="240" zoomAndPan="magnify" contentStyleType="text/css" viewBox="0 0 240 239.999995" height="239.999995" preserveAspectRatio="xMidYMid meet" version="1.0"><defs><clipPath id="clip-0"><path d="M 132 83.101562 L 234 83.101562 L 234 222 L 132 222 Z M 132 83.101562 " clip-rule="nonzero"/></clipPath><clipPath id="clip-1"><path d="M 49.296875 129.828125 L 53.214844 129.828125 L 53.214844 130.097656 L 49.296875 130.097656 Z M 49.296875 129.828125 " clip-rule="nonzero"/></clipPath><clipPath id="clip-2"><path d="M 49.308594 129.832031 C 49.308594 129.90625 49.316406 129.972656 49.316406 130.046875 L 53.09375 130.046875 L 49.308594 129.832031 " clip-rule="nonzero"/></clipPath><clipPath id="clip-3"><path d="M 16 139 L 90 139 L 90 239.851562 L 16 239.851562 Z M 16 139 " clip-rule="nonzero"/></clipPath></defs><path fill="rgb(19.999695%, 22.749329%, 35.688782%)" d="M 34.242188 92.785156 C 34.105469 92.769531 33.976562 92.765625 33.855469 92.769531 C 32.308594 92.824219 30.34375 94.214844 29.105469 95.058594 C 28.171875 95.691406 27.253906 96.472656 26.925781 97.546875 C 26.765625 98.070312 26.757812 98.621094 26.753906 99.164062 C 26.632812 109.507812 27.25 204.808594 27.988281 227.007812 C 28.046875 228.800781 28.027344 230.929688 29.535156 231.914062 C 30.441406 232.503906 31.597656 232.464844 32.679688 232.445312 C 95.105469 231.375 184.28125 232.648438 231.074219 232.917969 C 232.753906 232.929688 234.527344 232.589844 235.855469 231.558594 C 237.578125 230.222656 238.320312 227.886719 238.382812 225.703125 C 238.726562 214.046875 238.839844 202.378906 238.960938 190.714844 C 239.132812 175.078125 239.238281 159.441406 239.292969 143.804688 C 239.339844 130.542969 239.371094 117.285156 239.242188 104.027344 C 239.214844 101.324219 239.921875 97.304688 238.027344 95.214844 C 237.160156 94.261719 236.03125 93.601562 234.917969 92.957031 C 233.949219 92.398438 232.984375 91.835938 232.015625 91.277344 C 231.832031 91.171875 231.644531 91.0625 231.429688 91.050781 C 231.203125 91.039062 230.984375 91.144531 230.773438 91.230469 C 229.667969 91.695312 228.496094 91.667969 227.328125 91.640625 C 226.863281 91.628906 226.398438 91.617188 225.941406 91.636719 C 224.253906 91.707031 222.578125 91.816406 220.902344 92.015625 C 216.738281 92.507812 212.621094 93.390625 208.578125 94.476562 C 185.761719 100.605469 161.910156 102.257812 138.316406 103.476562 C 121.335938 104.359375 104.53125 101.691406 87.714844 99.027344 C 72.664062 96.640625 57.605469 94.257812 42.398438 94.410156 C 40.539062 94.070312 38.679688 93.730469 36.820312 93.386719 C 36.082031 93.253906 35.058594 92.871094 34.242188 92.785156 " fill-opacity="1" fill-rule="nonzero"/><path fill="rgb(87.838745%, 94.119263%, 98.429871%)" d="M 226.628906 218.6875 C 195.566406 213.808594 164.425781 208.914062 133.011719 207.597656 C 101.597656 206.285156 71.34375 218.234375 39.902344 218.550781 L 35.347656 218.597656 L 33.410156 222.558594 C 33.328125 225.085938 33.304688 227 34.675781 226.964844 C 39.269531 226.84375 130.621094 224.078125 163.339844 224.925781 C 184.839844 225.480469 206.675781 225.617188 226.675781 226.0625 C 229.878906 226.136719 233.308594 226.503906 233.226562 223.308594 C 233.203125 222.453125 233.367188 221.574219 233.113281 220.546875 C 232.652344 218.695312 228.675781 219.011719 226.628906 218.6875 " fill-opacity="1" fill-rule="nonzero"/><path fill="rgb(82.749939%, 82.348633%, 82.348633%)" d="M 133.246094 221.550781 C 127.234375 219.453125 118.5625 218.601562 108.460938 217.761719 C 80.761719 215.453125 50.785156 222.382812 33.414062 222.554688 C 32.484375 193.820312 32.5 159.566406 31.910156 130.050781 C 31.769531 122.722656 32.121094 101.054688 32.03125 90.367188 C 40.878906 86.8125 58.609375 85.558594 71.070312 84.847656 C 81.839844 84.242188 92.675781 83.898438 103.386719 85.144531 C 105.84375 85.425781 108.238281 85.679688 110.558594 86.027344 C 114.058594 86.539062 117.382812 87.234375 120.492188 88.539062 C 123.332031 89.710938 126 91.375 128.460938 93.820312 C 129.285156 94.636719 130.070312 95.5 130.613281 96.519531 C 131.34375 97.925781 132.023438 99.695312 132.0625 101.273438 C 132.492188 120.761719 133.25 210.820312 133.246094 221.550781 " fill-opacity="1" fill-rule="nonzero"/><path fill="rgb(87.838745%, 94.119263%, 98.429871%)" d="M 132.058594 101.273438 C 132.023438 99.691406 131.347656 97.921875 130.609375 96.519531 C 130.070312 95.5 129.28125 94.636719 128.460938 93.820312 C 127.945312 93.308594 127.417969 92.839844 126.878906 92.390625 C 126.980469 102.125 128.417969 202.753906 128.644531 220.285156 C 130.3125 220.648438 131.855469 221.066406 133.246094 221.550781 C 133.253906 210.824219 132.496094 120.765625 132.058594 101.273438 " fill-opacity="1" fill-rule="nonzero"/><path fill="rgb(90.979004%, 94.119263%, 95.289612%)" d="M 44.25 108.515625 C 57.625 105.792969 72.207031 104.371094 86.246094 104.371094 C 96.816406 104.371094 107.078125 105.175781 116.28125 106.839844 C 116.609375 106.898438 116.929688 106.679688 116.988281 106.347656 C 117.050781 106.015625 116.828125 105.699219 116.496094 105.640625 C 107.207031 103.960938 96.878906 103.152344 86.246094 103.152344 C 72.125 103.152344 57.46875 104.582031 44.007812 107.316406 C 43.675781 107.386719 43.464844 107.707031 43.53125 108.039062 C 43.597656 108.367188 43.921875 108.582031 44.25 108.515625 " fill-opacity="1" fill-rule="nonzero"/><path fill="rgb(90.979004%, 94.119263%, 95.289612%)" d="M 42.664062 123.972656 C 57.949219 120.964844 73.511719 119.449219 89.128906 119.449219 C 98.753906 119.449219 108.398438 120.023438 118.011719 121.179688 C 118.34375 121.222656 118.644531 120.984375 118.683594 120.652344 C 118.726562 120.320312 118.488281 120.019531 118.15625 119.976562 C 108.492188 118.816406 98.800781 118.238281 89.128906 118.238281 C 73.433594 118.238281 57.792969 119.761719 42.429688 122.78125 C 42.101562 122.847656 41.886719 123.167969 41.953125 123.496094 C 42.015625 123.824219 42.335938 124.039062 42.664062 123.972656 " fill-opacity="1" fill-rule="nonzero"/><path fill="rgb(90.979004%, 94.119263%, 95.289612%)" d="M 44.851562 138.449219 C 59.480469 135.234375 75.015625 133.933594 90.101562 133.933594 C 99.773438 133.933594 109.257812 134.46875 118.199219 135.371094 C 118.535156 135.40625 118.832031 135.160156 118.867188 134.828125 C 118.898438 134.496094 118.65625 134.199219 118.324219 134.164062 C 109.34375 133.257812 99.816406 132.722656 90.101562 132.722656 C 74.949219 132.722656 59.332031 134.027344 44.589844 137.265625 C 44.265625 137.339844 44.058594 137.664062 44.128906 137.988281 C 44.199219 138.316406 44.527344 138.523438 44.851562 138.449219 " fill-opacity="1" fill-rule="nonzero"/><path fill="rgb(90.979004%, 94.119263%, 95.289612%)" d="M 44.695312 151.957031 C 60.351562 148.601562 76.367188 146.90625 92.449219 146.90625 C 102.039062 146.90625 111.652344 147.507812 121.226562 148.722656 C 121.558594 148.765625 121.863281 148.53125 121.902344 148.199219 C 121.945312 147.867188 121.710938 147.5625 121.378906 147.519531 C 111.753906 146.300781 102.09375 145.691406 92.449219 145.691406 C 76.28125 145.691406 60.179688 147.398438 44.441406 150.773438 C 44.113281 150.84375 43.90625 151.164062 43.976562 151.492188 C 44.046875 151.820312 44.367188 152.027344 44.695312 151.957031 " fill-opacity="1" fill-rule="nonzero"/><path fill="rgb(90.979004%, 94.119263%, 95.289612%)" d="M 45.40625 166.011719 C 59.746094 163.058594 74.273438 161.960938 88.878906 161.960938 C 99.191406 161.960938 109.542969 162.507812 119.886719 163.328125 C 120.21875 163.355469 120.511719 163.109375 120.539062 162.773438 C 120.5625 162.441406 120.316406 162.148438 119.980469 162.121094 C 109.617188 161.296875 99.234375 160.75 88.878906 160.75 C 74.214844 160.75 59.601562 161.847656 45.160156 164.824219 C 44.832031 164.894531 44.621094 165.210938 44.691406 165.539062 C 44.757812 165.867188 45.078125 166.078125 45.40625 166.011719 " fill-opacity="1" fill-rule="nonzero"/><path fill="rgb(90.979004%, 94.119263%, 95.289612%)" d="M 47.261719 179.816406 C 61.304688 177.152344 75.574219 175.8125 89.882812 175.8125 C 99.515625 175.8125 109.164062 176.417969 118.773438 177.640625 C 119.105469 177.683594 119.410156 177.449219 119.449219 177.117188 C 119.492188 176.785156 119.257812 176.480469 118.925781 176.4375 C 109.265625 175.210938 99.566406 174.601562 89.882812 174.601562 C 75.5 174.601562 61.152344 175.949219 47.035156 178.628906 C 46.703125 178.691406 46.488281 179.007812 46.550781 179.335938 C 46.613281 179.664062 46.929688 179.882812 47.261719 179.816406 " fill-opacity="1" fill-rule="nonzero"/><path fill="rgb(90.979004%, 94.119263%, 95.289612%)" d="M 46.265625 194.414062 C 60.183594 191.546875 74.558594 190.132812 88.910156 190.132812 C 98.59375 190.132812 108.261719 190.773438 117.773438 192.050781 C 118.105469 192.097656 118.410156 191.863281 118.457031 191.53125 C 118.5 191.199219 118.269531 190.894531 117.933594 190.851562 C 108.371094 189.566406 98.644531 188.917969 88.910156 188.917969 C 74.480469 188.917969 60.023438 190.339844 46.019531 193.226562 C 45.691406 193.292969 45.480469 193.613281 45.546875 193.941406 C 45.617188 194.269531 45.9375 194.480469 46.265625 194.414062 " fill-opacity="1" fill-rule="nonzero"/><g clip-path="url(#clip-0)"><path fill="rgb(82.749939%, 82.348633%, 82.348633%)" d="M 160.378906 84.566406 C 171.066406 83.105469 181.90625 83.234375 192.6875 83.625 C 205.160156 84.082031 222.75 86.597656 233.875 89.027344 C 234.003906 99.714844 232.742188 120.695312 232.746094 128.03125 C 232.757812 157.554688 233.457031 191.796875 233.113281 220.546875 C 215.738281 220.722656 185.628906 214.394531 157.988281 217.265625 C 147.90625 218.3125 139.25 219.335938 133.277344 221.550781 C 133.058594 210.828125 132.011719 120.984375 132.054688 101.519531 C 132.058594 99.933594 132.40625 98.332031 133.113281 96.914062 C 133.628906 95.882812 134.402344 95 135.203125 94.171875 C 142.027344 87.105469 150.878906 85.867188 160.378906 84.566406 " fill-opacity="1" fill-rule="nonzero"/></g><path fill="rgb(90.979004%, 94.119263%, 95.289612%)" d="M 220.195312 105.546875 C 208.039062 103.328125 194.9375 102.1875 182.152344 102.1875 C 170.019531 102.1875 158.175781 103.210938 147.6875 105.324219 C 147.355469 105.390625 147.140625 105.714844 147.207031 106.042969 C 147.277344 106.375 147.597656 106.589844 147.929688 106.519531 C 158.316406 104.425781 170.089844 103.40625 182.152344 103.40625 C 194.863281 103.40625 207.902344 104.542969 219.976562 106.746094 C 220.308594 106.804688 220.625 106.585938 220.6875 106.253906 C 220.746094 105.921875 220.527344 105.605469 220.195312 105.546875 " fill-opacity="1" fill-rule="nonzero"/><path fill="rgb(90.979004%, 94.119263%, 95.289612%)" d="M 222.085938 120.972656 C 208.261719 118.542969 194.242188 117.320312 180.183594 117.320312 C 168.890625 117.320312 157.574219 118.109375 146.320312 119.695312 C 145.984375 119.742188 145.753906 120.046875 145.800781 120.378906 C 145.851562 120.710938 146.15625 120.941406 146.488281 120.894531 C 157.6875 119.316406 168.945312 118.53125 180.183594 118.53125 C 194.171875 118.53125 208.121094 119.75 221.875 122.167969 C 222.203125 122.226562 222.519531 122.003906 222.578125 121.675781 C 222.636719 121.347656 222.414062 121.03125 222.085938 120.972656 " fill-opacity="1" fill-rule="nonzero"/><path fill="rgb(90.979004%, 94.119263%, 95.289612%)" d="M 220.214844 135.5 C 207.109375 132.894531 193.347656 131.820312 179.847656 131.820312 C 168.328125 131.820312 157 132.601562 146.4375 133.882812 C 146.105469 133.925781 145.867188 134.226562 145.90625 134.558594 C 145.949219 134.890625 146.25 135.128906 146.582031 135.085938 C 157.101562 133.808594 168.382812 133.03125 179.847656 133.03125 C 193.28125 133.03125 206.96875 134.101562 219.976562 136.6875 C 220.304688 136.753906 220.625 136.539062 220.691406 136.210938 C 220.757812 135.882812 220.542969 135.566406 220.214844 135.5 " fill-opacity="1" fill-rule="nonzero"/><path fill="rgb(90.979004%, 94.119263%, 95.289612%)" d="M 220.640625 149 C 206.347656 146.234375 191.78125 144.839844 177.167969 144.839844 C 165.988281 144.839844 154.78125 145.65625 143.652344 147.296875 C 143.320312 147.34375 143.09375 147.652344 143.140625 147.984375 C 143.191406 148.316406 143.5 148.542969 143.828125 148.496094 C 154.898438 146.863281 166.046875 146.050781 177.167969 146.050781 C 191.703125 146.050781 206.191406 147.4375 220.40625 150.1875 C 220.738281 150.253906 221.054688 150.039062 221.121094 149.710938 C 221.183594 149.382812 220.96875 149.0625 220.640625 149 " fill-opacity="1" fill-rule="nonzero"/><path fill="rgb(90.979004%, 94.119263%, 95.289612%)" d="M 220.199219 163.0625 C 207.566406 160.722656 194.824219 159.8125 182.054688 159.8125 C 169.824219 159.8125 157.566406 160.648438 145.339844 161.867188 C 145.007812 161.898438 144.765625 162.195312 144.796875 162.53125 C 144.832031 162.863281 145.128906 163.105469 145.460938 163.074219 C 157.660156 161.855469 169.878906 161.023438 182.054688 161.023438 C 194.769531 161.023438 207.433594 161.929688 219.980469 164.253906 C 220.308594 164.316406 220.625 164.097656 220.6875 163.769531 C 220.746094 163.441406 220.53125 163.125 220.199219 163.0625 " fill-opacity="1" fill-rule="nonzero"/><path fill="rgb(90.979004%, 94.119263%, 95.289612%)" d="M 218.609375 176.902344 C 205.957031 174.765625 193.148438 173.6875 180.3125 173.6875 C 169.089844 173.6875 157.855469 174.511719 146.6875 176.160156 C 146.355469 176.207031 146.125 176.515625 146.175781 176.847656 C 146.222656 177.175781 146.535156 177.40625 146.863281 177.355469 C 157.972656 175.71875 169.152344 174.902344 180.3125 174.902344 C 193.078125 174.902344 205.824219 175.96875 218.402344 178.097656 C 218.734375 178.152344 219.050781 177.929688 219.105469 177.601562 C 219.160156 177.273438 218.9375 176.957031 218.609375 176.902344 " fill-opacity="1" fill-rule="nonzero"/><path fill="rgb(90.979004%, 94.119263%, 95.289612%)" d="M 219.921875 191.476562 C 207.296875 189.136719 194.328125 187.988281 181.367188 187.988281 C 170.15625 187.988281 158.949219 188.847656 147.964844 190.550781 C 147.636719 190.601562 147.410156 190.910156 147.460938 191.242188 C 147.511719 191.574219 147.824219 191.796875 148.15625 191.746094 C 159.070312 190.054688 170.21875 189.199219 181.367188 189.199219 C 194.257812 189.199219 207.148438 190.34375 219.699219 192.667969 C 220.027344 192.730469 220.34375 192.511719 220.40625 192.183594 C 220.46875 191.851562 220.25 191.539062 219.921875 191.476562 " fill-opacity="1" fill-rule="nonzero"/><path fill="rgb(94.119263%, 21.958923%, 49.409485%)" d="M 121.777344 209.664062 C 119.152344 206.84375 117.261719 202.328125 116.285156 201.042969 C 115.511719 202.109375 113.382812 206.105469 110.949219 209.773438 C 111.507812 167.484375 110.589844 127.683594 110.558594 86.027344 C 114.054688 86.535156 117.378906 87.238281 120.492188 88.539062 C 120.726562 117.742188 121.78125 170.605469 121.585938 176.671875 C 121.3125 185.5 122.433594 200.773438 121.777344 209.664062 " fill-opacity="1" fill-rule="nonzero"/><path fill="rgb(98.429871%, 76.469421%, 72.158813%)" d="M 84.695312 167.320312 C 84.613281 167.449219 84.535156 167.578125 84.453125 167.707031 C 83.125 169.851562 81.792969 171.542969 82.335938 174.234375 C 82.679688 175.949219 83.664062 177.460938 84.671875 178.894531 C 88.660156 184.566406 93.332031 189.75 98.542969 194.316406 C 101.148438 196.597656 103.890625 198.726562 106.75 200.6875 C 109.855469 202.820312 113.292969 204.964844 117.058594 205.921875 C 124.394531 207.789062 129.910156 203.902344 135.308594 199.441406 C 142.363281 193.617188 148.765625 186.558594 156.75 181.992188 C 156.527344 182.121094 155.300781 179.472656 155.125 179.171875 C 154.535156 178.175781 153.527344 177.730469 152.660156 176.988281 C 151.472656 175.972656 148.171875 172.03125 146.316406 173.386719 C 144.054688 175.039062 141.789062 176.6875 139.527344 178.339844 C 137.453125 179.859375 135.449219 180.878906 133.179688 182.046875 C 129.449219 183.976562 124.636719 185.984375 120.347656 185.328125 C 117.378906 184.871094 114.953125 182.792969 112.742188 180.753906 C 108.699219 177.023438 104.785156 173.15625 101.007812 169.15625 C 99.144531 167.1875 97.035156 165.226562 95.453125 163.023438 C 94.457031 161.636719 92.550781 159.046875 90.460938 159.6875 C 89.429688 160.003906 88.304688 162.195312 87.699219 163 C 86.632812 164.394531 85.632812 165.835938 84.695312 167.320312 " fill-opacity="1" fill-rule="nonzero"/><path fill="rgb(98.429871%, 76.469421%, 72.158813%)" d="M 66.410156 141.125 C 66.410156 142.734375 65.164062 144.09375 63.9375 145.234375 C 62.132812 146.9375 60.710938 150.800781 58.394531 151.855469 C 54.800781 153.484375 51.503906 154.050781 47.773438 152.726562 C 44.042969 151.402344 39.386719 145.9375 37.851562 142.519531 C 37.660156 142.085938 37.5 141.546875 37.835938 141.199219 C 37.972656 141.0625 38.140625 140.910156 38.335938 140.902344 C 47.535156 140.785156 48.703125 137.085938 48.847656 133.480469 C 48.894531 132.28125 48.824219 131.089844 48.898438 130.046875 L 54.679688 130.046875 L 54.621094 130.132812 L 54.605469 130.167969 C 54.363281 130.804688 54.507812 133.617188 55.144531 136.027344 L 55.183594 136.1875 C 55.558594 137.542969 56.101562 138.753906 56.820312 139.367188 C 58.613281 140.890625 64 140.808594 66.410156 141.125 " fill-opacity="1" fill-rule="nonzero"/><g clip-path="url(#clip-1)"><g clip-path="url(#clip-2)"><path fill="rgb(81.959534%, 73.728943%, 72.549438%)" d="M 49.308594 130.046875 L 53.09375 130.046875 L 53.09375 129.832031 L 49.308594 129.832031 L 49.308594 130.046875 " fill-opacity="1" fill-rule="nonzero"/></g></g><path fill="rgb(97.648621%, 69.018555%, 64.309692%)" d="M 53.09375 130.046875 L 49.316406 130.046875 C 49.335938 130.9375 49.371094 131.832031 49.417969 132.722656 L 49.414062 132.847656 L 49.476562 132.933594 C 49.601562 133.121094 49.746094 133.308594 49.910156 133.480469 C 50.597656 134.222656 51.589844 134.789062 52.515625 135.179688 C 53.359375 135.539062 54.246094 135.800781 55.144531 136.027344 C 55.082031 135.792969 55.023438 135.554688 54.972656 135.316406 C 54.648438 133.84375 54.496094 132.3125 54.496094 131.285156 C 54.492188 130.757812 54.53125 130.363281 54.605469 130.167969 L 54.621094 130.132812 L 53.09375 130.046875 " fill-opacity="1" fill-rule="nonzero"/><g clip-path="url(#clip-3)"><path fill="rgb(37.249756%, 30.198669%, 66.668701%)" d="M 88.945312 233.941406 C 88.660156 234.730469 88.21875 235.359375 87.554688 235.71875 C 86.550781 236.269531 85.386719 236.429688 84.246094 236.574219 C 67.152344 238.71875 49.191406 239.863281 32.011719 238.410156 C 28.042969 238.074219 24.074219 237.550781 20.226562 236.507812 C 18.710938 236.097656 16.808594 235.941406 16.292969 234.445312 C 16.152344 234.046875 16.257812 233.386719 16.25 232.964844 C 16.175781 229.683594 16.210938 223.898438 16.230469 220.617188 C 16.292969 210.226562 16.800781 199.792969 16.59375 189.40625 C 16.558594 187.382812 16.527344 185.351562 16.527344 183.320312 C 16.527344 178.855469 16.675781 174.390625 17.273438 169.964844 C 17.71875 166.632812 18.417969 163.332031 19.382812 160.109375 C 20.351562 156.886719 21.445312 153.277344 23.285156 150.4375 C 25.046875 147.738281 27.390625 145.058594 30.019531 143.199219 C 32.792969 141.242188 35.539062 140.945312 38.8125 140.265625 C 39.636719 140.097656 41.042969 139.78125 41.871094 139.636719 C 42.78125 139.46875 42.8125 139.96875 43.3125 140.6875 C 44.261719 142.039062 45.410156 143.269531 46.753906 144.230469 C 47.980469 145.109375 49.371094 145.769531 50.847656 146.109375 C 52.273438 146.445312 53.480469 146.226562 54.816406 145.640625 C 57.371094 144.519531 59.09375 142.488281 59.972656 139.894531 C 61.832031 140.136719 63.703125 140.277344 65.550781 140.59375 C 67.324219 140.886719 69.011719 141.523438 70.714844 142.082031 C 80.238281 146.9375 82.59375 161.308594 83.78125 170.742188 C 84.34375 175.21875 84.910156 179.699219 85.472656 184.179688 C 85.472656 189.0625 86.074219 194 86.460938 198.863281 C 87.007812 205.667969 87.59375 212.46875 88.226562 219.265625 C 88.460938 221.804688 90.121094 230.613281 88.945312 233.941406 " fill-opacity="1" fill-rule="nonzero"/></g><path fill="rgb(100%, 100%, 100%)" d="M 57.105469 151.457031 C 59.636719 148.554688 61.703125 144.304688 63.460938 140.300781 C 62.296875 140.160156 61.132812 140.042969 59.972656 139.890625 C 59.097656 142.488281 57.371094 144.523438 54.820312 145.644531 C 53.480469 146.226562 52.273438 146.441406 50.847656 146.109375 C 49.371094 145.769531 47.980469 145.109375 46.753906 144.230469 C 45.40625 143.265625 44.261719 142.042969 43.316406 140.6875 C 42.8125 139.964844 42.78125 139.46875 41.867188 139.632812 C 41.5625 139.6875 41.179688 139.765625 40.777344 139.851562 C 40.5 139.910156 42.898438 145.34375 43.152344 145.738281 C 44.382812 147.640625 45.636719 149.523438 47.273438 151.136719 C 48.898438 149.785156 50.484375 148.121094 52.109375 146.769531 C 53.300781 148.097656 56.382812 150.832031 57.105469 151.457031 " fill-opacity="1" fill-rule="nonzero"/><path fill="rgb(98.429871%, 76.469421%, 72.158813%)" d="M 47.480469 199.445312 C 40.753906 201.175781 32 201.929688 24.339844 201.550781 C 22.75 201.472656 20.769531 200.996094 20.46875 199.433594 C 20.363281 198.839844 20.539062 198.238281 20.71875 197.664062 C 23.148438 189.882812 25.570312 182.105469 28 174.328125 C 28.097656 174.011719 28.199219 173.664062 28.078125 173.351562 C 27.980469 173.085938 27.746094 172.902344 27.519531 172.730469 C 23.695312 169.816406 20.207031 166.675781 16.707031 163.347656 C 15.285156 162 12.929688 169.265625 12.355469 170.617188 C 11.007812 173.800781 9.6875 176.996094 8.429688 180.222656 C 5.921875 186.65625 3.667969 193.199219 1.992188 199.898438 C 0.863281 204.382812 0.0820312 209.457031 2.558594 213.363281 C 6.894531 220.203125 15.011719 219.597656 21.941406 219.074219 C 25.4375 218.8125 28.90625 218.304688 32.347656 217.644531 C 39.273438 216.316406 46.054688 214.359375 52.824219 212.398438 C 53.800781 212.117188 54.941406 211.671875 55.167969 210.679688 C 55.5 209.191406 54.382812 207.195312 53.847656 205.832031 C 52.5625 202.554688 51.875 199.074219 47.753906 199.421875 C 47.664062 199.429688 47.570312 199.421875 47.480469 199.445312 " fill-opacity="1" fill-rule="nonzero"/><path fill="rgb(37.249756%, 30.198669%, 66.668701%)" d="M 19.460938 152.628906 C 15.683594 156.613281 12.753906 161.113281 10.152344 165.929688 C 8.828125 168.390625 7.402344 170.882812 6.285156 173.449219 C 5.265625 175.792969 3.828125 178.097656 3.160156 180.609375 C 2.9375 181.433594 2.804688 182.324219 3.085938 183.128906 C 3.265625 183.652344 3.609375 184.101562 3.984375 184.503906 C 7.691406 188.453125 12.976562 190.535156 18.082031 191.984375 C 19.53125 192.398438 22.484375 193.722656 23.515625 192.421875 C 24.09375 191.6875 24.34375 190.21875 24.667969 189.339844 C 25.042969 188.316406 25.410156 187.292969 25.765625 186.261719 C 27.167969 182.21875 28.390625 178.105469 29.214844 173.902344 C 30.03125 169.753906 30.183594 167.234375 28.824219 163.269531 C 28.28125 161.691406 28.007812 160.042969 27.585938 158.417969 C 27.039062 156.300781 26.71875 154.121094 26.628906 151.9375 C 26.585938 150.894531 26.152344 146.433594 26.992188 145.738281 C 24.265625 147.988281 21.765625 150.199219 19.460938 152.628906 " fill-opacity="1" fill-rule="nonzero"/><path fill="rgb(100%, 100%, 100%)" d="M 2.945312 178.429688 C 2.226562 179.921875 1.597656 181.730469 2.183594 183.136719 C 3.363281 185.964844 7.695312 188.066406 10.21875 189.464844 C 12.335938 190.640625 14.546875 191.648438 16.824219 192.476562 C 18.449219 193.070312 20.175781 193.828125 21.9375 193.828125 C 23.863281 193.832031 27.269531 190.195312 25.8125 188.265625 C 25.46875 187.808594 24.9375 187.546875 24.425781 187.292969 C 21.347656 185.796875 17.371094 184.246094 14.058594 182.320312 C 11.082031 180.585938 8.765625 178.914062 6.324219 176.472656 C 5.898438 176.171875 5.414062 175.847656 4.894531 175.925781 C 4.308594 176.015625 3.925781 176.570312 3.640625 177.09375 C 3.425781 177.484375 3.183594 177.941406 2.945312 178.429688 " fill-opacity="1" fill-rule="nonzero"/><path fill="rgb(37.249756%, 30.198669%, 66.668701%)" d="M 81.644531 146.382812 C 85.058594 148.324219 89.386719 151.953125 92.492188 154.359375 C 95.34375 156.570312 98.058594 158.96875 100.597656 161.535156 C 104.21875 165.191406 107.472656 168.777344 110.691406 172.847656 C 111.050781 173.296875 111.417969 173.773438 111.519531 174.339844 C 111.730469 175.449219 111.246094 176.671875 110.59375 177.597656 C 108.1875 180.996094 105.390625 184.101562 102.292969 186.886719 C 100.753906 188.277344 99.144531 189.585938 97.488281 190.828125 C 95.855469 192.046875 94.394531 193.820312 92.5625 192.050781 C 87.363281 187.042969 82.859375 181.339844 79.613281 174.839844 C 77.261719 170.136719 76.753906 165.785156 76.921875 160.636719 C 76.976562 158.972656 76.761719 157.3125 76.6875 155.636719 C 76.589844 153.453125 76.257812 151.273438 75.703125 149.160156 C 75.4375 148.148438 71.214844 142.175781 70.207031 141.757812 C 74.273438 142.78125 78.6875 144.703125 81.644531 146.382812 " fill-opacity="1" fill-rule="nonzero"/><path fill="rgb(100%, 100%, 100%)" d="M 112.527344 174.417969 C 112.480469 173.949219 112.234375 173.519531 112 173.105469 C 111.417969 172.097656 110.875 171.007812 110.035156 170.179688 C 108.878906 169.046875 107.882812 169.730469 106.984375 170.839844 C 104.117188 174.382812 102.320312 175.734375 99.25 178.847656 C 96.15625 181.988281 92.503906 185.792969 89.367188 188.785156 C 89.117188 189.027344 88.96875 189.402344 89.035156 189.746094 C 89.09375 190.035156 89.324219 190.25 89.550781 190.445312 C 90.621094 191.375 92.203125 193.378906 93.703125 193.554688 C 95.136719 193.71875 96.347656 192.300781 97.378906 191.527344 C 99.097656 190.242188 100.757812 188.894531 102.355469 187.457031 C 106.046875 184.132812 109.535156 180.464844 111.992188 176.144531 C 112.277344 175.640625 112.5625 175.097656 112.535156 174.519531 L 112.527344 174.417969 " fill-opacity="1" fill-rule="nonzero"/><path fill="rgb(98.429871%, 76.469421%, 72.158813%)" d="M 43.523438 121.699219 C 43.121094 121.507812 42.589844 121.648438 42.292969 121.933594 C 41.992188 122.226562 41.890625 122.621094 41.867188 123.003906 C 41.820312 123.800781 42.089844 124.613281 42.621094 125.277344 C 42.886719 125.605469 43.230469 125.910156 43.667969 126.054688 L 43.753906 126.058594 L 43.777344 126.003906 C 43.816406 125.058594 43.855469 124.113281 43.898438 123.167969 L 43.523438 121.699219 " fill-opacity="1" fill-rule="nonzero"/><path fill="rgb(98.429871%, 76.469421%, 72.158813%)" d="M 65.355469 121.074219 C 65.34375 128.152344 62.511719 134.214844 54.636719 134.214844 C 46.59375 134.214844 43.371094 128.8125 43.160156 121.738281 C 42.945312 114.664062 47.738281 108.605469 53.871094 108.597656 C 60.953125 108.589844 65.363281 111.308594 65.355469 121.074219 " fill-opacity="1" fill-rule="nonzero"/><path fill="rgb(19.999695%, 22.749329%, 35.688782%)" d="M 67.996094 111.894531 C 67.730469 111.558594 67.433594 111.269531 67.175781 111.066406 C 66.46875 110.507812 65.84375 110.066406 64.882812 109.726562 C 65.273438 109.652344 65.695312 109.765625 66.085938 109.796875 C 66.625 109.835938 67.195312 109.875 67.695312 109.667969 C 69.632812 108.851562 68.796875 106.582031 67.382812 105.753906 C 66.519531 105.25 65.507812 105.085938 64.511719 104.980469 C 63.765625 104.902344 63.011719 104.847656 62.257812 104.824219 C 62.484375 104.605469 62.800781 104.515625 63.082031 104.371094 C 63.363281 104.226562 63.636719 103.96875 63.613281 103.652344 C 63.558594 102.886719 62.414062 102.734375 61.828125 102.652344 C 60.945312 102.527344 60.050781 102.597656 59.171875 102.710938 C 57.601562 102.917969 56.054688 103.300781 54.507812 103.613281 C 53 103.914062 51.53125 104.417969 50.152344 105.097656 C 49.34375 105.496094 48.5625 105.957031 47.824219 106.476562 C 47.472656 106.722656 47.175781 106.980469 46.878906 107.273438 C 46.578125 107.570312 46.585938 107.441406 46.136719 107.449219 C 45.753906 107.457031 45.386719 107.578125 45.046875 107.742188 C 43.699219 108.390625 42.464844 109.824219 41.863281 111.183594 C 41.167969 112.746094 40.929688 114.128906 40.9375 115.832031 C 40.941406 117.296875 41.496094 119.777344 42.429688 121.75 C 42.84375 121.578125 43.375 121.730469 43.691406 121.96875 C 43.804688 122.058594 44.566406 122.957031 44.539062 123.054688 C 44.5625 122.984375 44.589844 122.917969 44.605469 122.84375 C 45.441406 119.628906 45.890625 118.511719 47.921875 117.144531 C 50 115.75 52.460938 114.921875 54.984375 114.78125 C 57.898438 114.617188 59.9375 115.117188 62.34375 115.90625 C 64.007812 116.453125 64.824219 117.496094 65.261719 118.761719 C 65.84375 117.867188 66.0625 117.117188 66.066406 116.554688 C 66.070312 116.207031 66.015625 115.238281 65.550781 114.671875 C 65.441406 114.539062 66.378906 114.824219 66.550781 114.847656 C 66.933594 114.894531 67.320312 114.910156 67.695312 114.804688 C 69.367188 114.351562 68.816406 112.921875 67.996094 111.894531 " fill-opacity="1" fill-rule="nonzero"/><path fill="rgb(98.429871%, 76.469421%, 72.158813%)" d="M 65.414062 210.289062 C 67.964844 209.3125 70.515625 208.242188 72.820312 206.75 C 74.230469 205.832031 76.097656 204.59375 75.703125 202.632812 C 75.589844 202.074219 75.25 201.539062 74.765625 201.226562 C 74.527344 201.074219 73.75 200.859375 73.117188 200.933594 C 74.050781 200.121094 74.453125 199.019531 73.941406 198.070312 C 73.445312 197.140625 72.097656 196.542969 71.070312 196.773438 C 71.820312 196.144531 72.570312 194.75 72.015625 193.820312 C 71.472656 192.898438 70.234375 192.808594 69.1875 193.039062 C 66.984375 193.519531 63.929688 194.265625 62.234375 195.132812 C 62.996094 194.4375 63.347656 193.796875 64.28125 192.917969 C 65.226562 192.023438 66.339844 190.773438 66.242188 189.476562 C 66.1875 188.671875 65.683594 188.21875 64.933594 187.914062 C 63.539062 187.347656 62.027344 188.304688 60.828125 189.214844 C 58.546875 190.949219 56.503906 192.960938 54.398438 194.894531 C 52.546875 196.589844 50.605469 198.59375 48.148438 199.355469 C 48.300781 200.414062 48.738281 201.324219 49.042969 202.320312 C 49.378906 203.4375 49.519531 204.617188 49.871094 205.738281 C 50.535156 207.867188 51.511719 209.976562 53.113281 211.570312 C 53.253906 211.707031 53.398438 211.847656 53.585938 211.925781 C 53.789062 212.011719 54.019531 212.011719 54.238281 212.011719 C 56.167969 212 58.453125 211.71875 60.34375 211.394531 C 62.167969 211.078125 63.695312 210.949219 65.414062 210.289062 " fill-opacity="1" fill-rule="nonzero"/><path fill="rgb(97.648621%, 67.059326%, 64.309692%)" d="M 72.425781 200.90625 C 70.808594 201.488281 68.765625 202.21875 67.144531 202.800781 C 66.996094 202.855469 66.917969 203.019531 66.972656 203.167969 C 67.023438 203.316406 67.191406 203.394531 67.339844 203.339844 C 68.960938 202.761719 71.003906 202.027344 72.621094 201.445312 C 72.769531 201.390625 72.847656 201.226562 72.792969 201.078125 C 72.742188 200.929688 72.578125 200.851562 72.425781 200.90625 " fill-opacity="1" fill-rule="nonzero"/><path fill="rgb(97.648621%, 67.059326%, 64.309692%)" d="M 70.539062 196.5625 C 69.386719 197.242188 67.148438 198.328125 65.730469 198.917969 C 65.585938 198.976562 65.515625 199.144531 65.574219 199.292969 C 65.636719 199.4375 65.804688 199.507812 65.953125 199.449219 C 67.398438 198.847656 69.636719 197.761719 70.832031 197.058594 C 70.964844 196.976562 71.011719 196.804688 70.929688 196.667969 C 70.851562 196.53125 70.675781 196.484375 70.539062 196.5625 " fill-opacity="1" fill-rule="nonzero"/><path fill="rgb(98.429871%, 76.469421%, 72.158813%)" d="M 159.300781 181.421875 C 159.789062 181.285156 160.28125 181.15625 160.769531 181.023438 C 163.839844 180.191406 166.90625 179.359375 169.976562 178.527344 C 171.566406 178.09375 172.71875 177.457031 173.625 176.03125 C 174.570312 174.550781 175.296875 172.921875 175.773438 171.230469 C 175.875 170.863281 175.96875 170.480469 175.902344 170.101562 C 174.917969 166.691406 169.410156 173.234375 168.179688 173.292969 C 165.566406 173.421875 162.726562 173.558594 160.125 173.25 C 158.296875 173.03125 157.207031 171.546875 158.136719 169.804688 C 158.789062 168.582031 164.667969 166.222656 161.226562 164.796875 C 160.648438 164.558594 160.003906 164.527344 159.382812 164.558594 C 154.792969 164.792969 150.871094 167.339844 148.40625 171.117188 C 147.902344 171.886719 147.328125 172.648438 146.59375 173.214844 C 145.503906 174.058594 145.394531 173.9375 146.386719 175.0625 C 148.019531 176.914062 149.773438 178.660156 151.632812 180.285156 C 152.378906 180.933594 153.007812 181.726562 153.828125 182.285156 C 154.730469 182.902344 155.65625 182.546875 156.597656 182.230469 C 157.484375 181.933594 158.390625 181.671875 159.300781 181.421875 " fill-opacity="1" fill-rule="nonzero"/></svg>